<svg width="19" height="15" viewBox="0 0 19 15" fill="none" xmlns="http://www.w3.org/2000/svg">
<path fill-rule="evenodd" clip-rule="evenodd" d="M4.00844 4.27285C4.11214 4.5231 3.99333 4.81004 3.74308 4.91374C1.87098 5.6895 0.983895 6.77852 0.983895 8.21957C0.983895 10.2725 3.77832 11.6993 7.72822 11.8089L7.28953 11.4454C7.08065 11.2729 7.05113 10.9638 7.2236 10.7549C7.39607 10.546 7.70522 10.5165 7.91411 10.689L9.55356 12.0426C9.80287 12.2485 9.7883 12.635 9.5242 12.8215L7.88475 13.9792C7.66347 14.1355 7.35742 14.0828 7.20116 13.8615C7.04491 13.6402 7.09762 13.3341 7.31889 13.1779L7.86376 12.7933C3.35955 12.7086 0.00292969 11.0204 0.00292969 8.21957C0.00292969 6.34039 1.15712 4.92345 3.36755 4.0075C3.61781 3.9038 3.90474 4.0226 4.00844 4.27285ZM11.2864 11.8478C11.5561 11.8222 11.7955 12.02 11.8211 12.2897C11.8468 12.5593 11.6489 12.7987 11.3793 12.8244L10.8964 12.8703C10.6268 12.8959 10.3874 12.6981 10.3617 12.4284C10.3361 12.1588 10.5339 11.9194 10.8036 11.8937L11.2864 11.8478ZM13.7877 11.8304C13.8507 12.0939 13.6881 12.3585 13.4246 12.4214L12.9529 12.5341C12.6894 12.597 12.4248 12.4345 12.3619 12.171C12.2989 11.9075 12.4615 11.6429 12.725 11.58L13.1967 11.4673C13.4602 11.4044 13.7248 11.567 13.7877 11.8304ZM15.6894 10.966C15.7971 11.2146 15.683 11.5034 15.4344 11.6111L14.9894 11.804C14.7409 11.9117 14.4521 11.7975 14.3444 11.549C14.2366 11.3004 14.3508 11.0116 14.5993 10.9039L15.0443 10.711C15.2929 10.6033 15.5817 10.7175 15.6894 10.966ZM17.4111 9.74497C17.572 9.96292 17.5257 10.27 17.3077 10.4309L16.9175 10.7189C16.6996 10.8798 16.3925 10.8335 16.2316 10.6156C16.0708 10.3976 16.117 10.0905 16.335 9.92965L16.7252 9.64163C16.9431 9.48076 17.2502 9.52703 17.4111 9.74497ZM15.4102 4.41105C17.1729 5.37804 18.0914 6.65676 18.0914 8.21957C18.0914 8.49046 17.8718 8.71006 17.6009 8.71006C17.33 8.71006 17.1104 8.49046 17.1104 8.21957C17.1104 7.05261 16.4111 6.079 14.9384 5.27111C14.7009 5.14082 14.614 4.84267 14.7443 4.60518C14.8745 4.36768 15.1727 4.28077 15.4102 4.41105ZM5.84836 1.91836C6.04382 1.91836 6.22378 1.95163 6.38742 2.01855C6.55175 2.08576 6.69511 2.18317 6.81652 2.31021C6.93767 2.43697 7.02921 2.58427 7.09066 2.75119C7.15142 2.91623 7.18171 3.09323 7.18171 3.28152C7.18171 3.52845 7.13757 3.74331 7.048 3.92506C6.97958 4.06393 6.88845 4.19926 6.77487 4.33114C6.88072 4.41344 6.97354 4.5042 7.05313 4.60339C7.16148 4.7384 7.24316 4.88812 7.29786 5.05195C7.35225 5.21484 7.37932 5.39002 7.37932 5.57703C7.37932 5.79918 7.34317 6.01439 7.27092 6.22211C7.19813 6.4314 7.0906 6.6185 6.94866 6.78265C6.80581 6.94784 6.63582 7.07738 6.43952 7.1706C6.24178 7.2645 6.02387 7.31131 5.78713 7.31131C5.54403 7.31131 5.32395 7.25697 5.1289 7.14797C4.93846 7.04154 4.78053 6.90761 4.65609 6.74647C4.53456 6.58911 4.44216 6.42533 4.37928 6.25528C4.31622 6.08474 4.284 5.94075 4.284 5.82101C4.284 5.66042 4.328 5.52498 4.41782 5.41999C4.5105 5.31166 4.63117 5.2551 4.77123 5.2551C4.85192 5.2551 4.9282 5.28387 4.99715 5.3379C5.0653 5.39129 5.11205 5.45835 5.13351 5.5346C5.22646 5.84137 5.32495 6.06658 5.42629 6.20852C5.5133 6.3304 5.6313 6.3891 5.79269 6.3891C5.88318 6.3891 5.97087 6.36147 6.05811 6.30434C6.14588 6.24686 6.21999 6.15969 6.2803 6.04054C6.34081 5.92102 6.37146 5.78074 6.37146 5.61826C6.37146 5.3756 6.31951 5.19171 6.21924 5.06307C6.12436 4.94136 5.99522 4.88179 5.82052 4.88179C5.78928 4.88179 5.73584 4.88604 5.66228 4.89469C5.57925 4.90446 5.52653 4.90928 5.49766 4.90928C5.36219 4.90928 5.24954 4.86428 5.16919 4.77335C5.09196 4.68594 5.05497 4.56946 5.05497 4.42927C5.05497 4.28825 5.1001 4.16829 5.19057 4.07675C5.2828 3.98344 5.41349 3.93896 5.5756 3.93896H5.68971C5.82763 3.93896 5.94351 3.89022 6.04404 3.78942C6.14249 3.69072 6.19333 3.54442 6.19333 3.34337C6.19333 3.19348 6.15273 3.06817 6.07144 2.96307C5.99658 2.86629 5.89988 2.81995 5.77043 2.81995C5.67598 2.81995 5.6022 2.83536 5.54824 2.86403C5.49258 2.89361 5.45002 2.93145 5.41884 2.97831C5.38178 3.03401 5.34539 3.10838 5.3104 3.2011C5.27266 3.30111 5.23817 3.39536 5.20571 3.48715C5.17677 3.56219 5.12414 3.62175 5.05182 3.66297C4.98442 3.70137 4.90782 3.72029 4.82411 3.72029C4.71041 3.72029 4.60935 3.66512 4.52541 3.56457C4.44349 3.46644 4.40368 3.33953 4.40368 3.18874C4.40368 3.05156 4.4368 2.90942 4.50189 2.76272C4.56615 2.61789 4.65932 2.48098 4.78079 2.35207C4.90483 2.22044 5.05834 2.11529 5.24028 2.03667C5.42315 1.95764 5.62616 1.91836 5.84836 1.91836ZM14.9338 0.310547C15.3401 0.310547 15.6695 0.639942 15.6695 1.04627C15.6695 1.4526 15.3401 1.782 14.9338 1.782C14.5275 1.782 14.1981 1.4526 14.1981 1.04627C14.1981 0.639942 14.5275 0.310547 14.9338 0.310547ZM8.69336 4.01552C8.75848 3.95454 8.82628 3.90277 8.89683 3.8603C9.06467 3.75928 9.25263 3.70872 9.45828 3.70872C9.65485 3.70872 9.83784 3.75442 10.0054 3.84564C10.1706 3.93563 10.3148 4.06311 10.4374 4.22695C10.5585 4.38891 10.6516 4.57883 10.7169 4.79606C10.7816 5.01152 10.8139 5.23646 10.8139 5.4705C10.8139 5.81055 10.7505 6.12107 10.6234 6.40093C10.4948 6.6841 10.3135 6.90724 10.0804 7.068C9.84536 7.23003 9.57844 7.31131 9.28293 7.31131C8.94304 7.31131 8.64621 7.20769 8.39747 7.00127C8.15182 6.79741 7.96652 6.49994 7.8401 6.11154C7.71606 5.73047 7.65455 5.26835 7.65455 4.7248C7.65455 4.28368 7.69152 3.88808 7.76577 3.53787C7.8408 3.18395 7.94936 2.88835 8.09246 2.65117C8.23797 2.40999 8.41638 2.2258 8.6275 2.10048C8.83991 1.9744 9.08144 1.91149 9.34973 1.91149C9.60986 1.91149 9.84185 1.975 10.043 2.10233C10.2411 2.22779 10.3922 2.38514 10.4943 2.57363C10.5954 2.76022 10.6469 2.94258 10.6469 3.12001C10.6469 3.24061 10.6094 3.35171 10.5361 3.44956C10.4559 3.55656 10.3467 3.61376 10.2181 3.61376C10.1084 3.61376 10.0071 3.57127 9.91855 3.49082C9.83401 3.41399 9.77339 3.31019 9.7364 3.18386C9.70003 3.06673 9.64397 2.97524 9.56823 2.90697C9.49786 2.84354 9.41944 2.81308 9.32746 2.81308C9.25624 2.81308 9.18286 2.83927 9.10529 2.89491C9.02299 2.95394 8.95275 3.03478 8.89459 3.1385C8.79774 3.31214 8.72961 3.60559 8.69336 4.01552ZM9.29963 6.3891C9.44298 6.3891 9.56055 6.31739 9.66153 6.16154C9.76994 5.99424 9.82551 5.76915 9.82551 5.48424C9.82551 5.28993 9.79911 5.12535 9.74736 4.99034C9.69732 4.85981 9.63104 4.76354 9.54933 4.69908C9.47044 4.63686 9.38668 4.60688 9.29406 4.60688C9.20562 4.60688 9.12053 4.63613 9.03596 4.69711C8.94962 4.75938 8.8785 4.85153 8.82291 4.97588C8.76634 5.10241 8.73756 5.25327 8.73756 5.42926C8.73756 5.71667 8.79682 5.95184 8.91352 6.13709C9.02223 6.30966 9.14806 6.3891 9.29963 6.3891ZM14.1427 4.63202C14.1427 5.01295 14.1238 5.3414 14.0859 5.61776C14.0472 5.89956 13.9753 6.15618 13.8696 6.38833C13.735 6.67656 13.5589 6.90141 13.341 7.06085C13.1197 7.22279 12.8717 7.30444 12.6006 7.30444C12.2882 7.30444 12.0067 7.19475 11.7611 6.97829C11.52 6.76589 11.34 6.47445 11.2196 6.10394C11.1599 5.90655 11.1163 5.68928 11.0886 5.45209C11.0611 5.21694 11.0474 4.96308 11.0474 4.69044C11.0474 4.34035 11.0624 4.02448 11.0926 3.74268C11.1231 3.45784 11.171 3.2117 11.2373 3.00235C11.3536 2.65188 11.5251 2.38096 11.7528 2.19226C11.9839 2.00073 12.2608 1.90462 12.5783 1.90462C12.7878 1.90462 12.9798 1.94709 13.153 2.03235C13.3254 2.11725 13.4764 2.24108 13.6052 2.40267C13.7315 2.56108 13.8374 2.75503 13.9234 2.98437C14.0704 3.37832 14.1427 3.92679 14.1427 4.63202ZM13.1348 4.56329C13.1348 4.14977 13.1148 3.81261 13.075 3.55263C13.0368 3.30298 12.974 3.11862 12.8902 3.00013C12.8168 2.89651 12.7207 2.84744 12.5895 2.84744C12.4035 2.84744 12.2765 2.96113 12.1957 3.21856C12.1047 3.50889 12.058 3.96758 12.058 4.59078C12.058 5.01592 12.0781 5.36299 12.1179 5.63118C12.1562 5.88926 12.2193 6.08033 12.3038 6.20361C12.3776 6.31145 12.4708 6.36161 12.595 6.36161C12.7241 6.36161 12.8194 6.30934 12.8934 6.1969C12.9786 6.06741 13.041 5.87431 13.0776 5.6181C13.1157 5.35202 13.1348 5.00011 13.1348 4.56329Z" fill="#191C1F"/>
</svg>
