<svg width="17" height="15" viewBox="0 0 17 15" fill="none" xmlns="http://www.w3.org/2000/svg">
<path fill-rule="evenodd" clip-rule="evenodd" d="M13.7682 2.77689C14.0639 2.64505 14.3086 2.44494 14.4733 2.20014C14.6381 1.95535 14.716 1.6761 14.6981 1.3953C14.6801 1.1145 14.5669 0.843883 14.3718 0.615348C14.1768 0.386813 13.908 0.209897 13.5972 0.105461C13.2864 0.00102539 12.9465 -0.0265737 12.6176 0.0259183C12.2887 0.0784103 11.9846 0.208804 11.741 0.401724C11.4974 0.594643 11.3246 0.842041 11.243 1.11475C11.1613 1.38745 11.1741 1.67408 11.28 1.94085L8.60751 1.04289C8.49514 1.00512 8.375 0.986312 8.25398 0.987547C8.13295 0.988781 8.0134 1.01003 7.90215 1.05008C7.7909 1.09013 7.69013 1.1482 7.6056 1.22096C7.52107 1.29373 7.45443 1.37977 7.40949 1.47417L6.63011 3.11159C6.59584 3.17931 6.578 3.25209 6.57763 3.32566C6.57727 3.39924 6.5944 3.47214 6.628 3.54009C6.66161 3.60804 6.71102 3.66967 6.77335 3.72137C6.83567 3.77308 6.90965 3.81381 6.99096 3.84119C7.07227 3.86856 7.15926 3.88204 7.24684 3.88081C7.33442 3.87959 7.42083 3.86369 7.50101 3.83405C7.58118 3.80442 7.65351 3.76164 7.71375 3.70822C7.77399 3.65481 7.82094 3.59183 7.85183 3.52298L8.48551 2.19299L10.3769 2.82849L9.31491 5.20611C8.20292 5.07059 7.06848 5.23739 6.07741 5.68215C5.08634 6.1269 4.29061 6.82627 3.80653 7.67804C3.32245 8.52981 3.17541 9.48931 3.38689 10.4163C3.59837 11.3433 4.15729 12.1891 4.98195 12.8302C5.80661 13.4713 6.85377 13.874 7.97037 13.9795C9.08696 14.085 10.2144 13.8877 11.188 13.4164C12.1616 12.9452 12.9302 12.2247 13.3815 11.3603C13.8327 10.496 13.943 9.53298 13.6963 8.61218L15.1901 9.15037L13.2039 13.8216C13.1515 13.9583 13.1645 14.1068 13.2402 14.2356C13.3158 14.3644 13.4482 14.4634 13.6092 14.5117C13.7702 14.5599 13.9473 14.5537 14.103 14.4942C14.2586 14.4348 14.3806 14.3268 14.4432 14.1931L16.554 9.22852C16.6328 9.04302 16.6245 8.83925 16.5307 8.65872C16.437 8.47819 16.2648 8.33447 16.0493 8.25683L13.777 7.43849L15.2331 4.07665C15.3149 3.88766 15.306 3.67933 15.2082 3.49576C15.1104 3.3122 14.9314 3.16781 14.7091 3.09316L13.7682 2.77689ZM13.8648 4.00071L12.6518 6.80224C12.1028 6.23222 11.3942 5.7854 10.5893 5.50174L11.5986 3.23914L13.8648 4.00071ZM8.55748 12.9015C9.60496 12.9015 10.6095 12.5519 11.3502 11.9298C12.0909 11.3076 12.507 10.4638 12.507 9.58387C12.507 8.70399 12.0909 7.86014 11.3502 7.23797C10.6095 6.6158 9.60496 6.26627 8.55748 6.26627C7.51 6.26627 6.50543 6.6158 5.76475 7.23797C5.02407 7.86014 4.60796 8.70399 4.60796 9.58387C4.60796 10.4638 5.02407 11.3076 5.76475 11.9298C6.50543 12.5519 7.51 12.9015 8.55748 12.9015ZM2.89211 5.51722C3.01195 5.6238 3.0765 5.766 3.07156 5.91254C3.06662 6.05909 2.9926 6.19799 2.86578 6.2987C2.29792 6.75137 1.5835 7.64344 1.37549 8.79797C1.17275 9.9289 1.44746 11.3562 2.92897 12.9265C3.03368 13.0417 3.08039 13.1868 3.05907 13.3305C3.03774 13.4743 2.95007 13.6053 2.81493 13.6954C2.67978 13.7854 2.50796 13.8273 2.33642 13.812C2.16489 13.7967 2.00735 13.7255 1.8977 13.6136C0.201163 11.8148 -0.186768 10.0822 0.0739007 8.63208C0.330181 7.20625 1.2061 6.09744 1.9609 5.49584C2.08778 5.39518 2.25706 5.34096 2.43151 5.3451C2.60597 5.34925 2.77133 5.41143 2.89123 5.51796L2.89211 5.51722Z" fill="#1D234E"/>
</svg>
