<svg width="15" height="14" viewBox="0 0 15 14" fill="none" xmlns="http://www.w3.org/2000/svg">
<path fill-rule="evenodd" clip-rule="evenodd" d="M7.99515 0.542612C7.99515 0.398703 7.92709 0.260687 7.80595 0.158928C7.68481 0.057168 7.5205 0 7.34918 0C7.17786 0 7.01356 0.057168 6.89242 0.158928C6.77127 0.260687 6.70322 0.398703 6.70322 0.542612V1.29681L6.10201 0.791801L6.04233 0.747566C5.92381 0.66963 5.77423 0.632836 5.62439 0.644759C5.47455 0.656682 5.33585 0.716416 5.23686 0.811659C5.13788 0.906902 5.08614 1.0304 5.0923 1.15673C5.09846 1.28305 5.16205 1.40259 5.26998 1.49071L6.70322 2.69389V4.86139C6.70322 5.0054 6.77132 5.14351 6.89254 5.24534C7.01377 5.34717 7.17818 5.40437 7.34962 5.40437C7.52106 5.40437 7.68547 5.34717 7.8067 5.24534C7.92792 5.14351 7.99603 5.0054 7.99603 4.86139V2.69389L9.42839 1.49071L9.48105 1.43984C9.56701 1.34472 9.60904 1.22667 9.59936 1.10753C9.58968 0.988384 9.52894 0.876222 9.42839 0.791801L9.36783 0.747566C9.2546 0.675358 9.11406 0.640053 8.97222 0.648186C8.83038 0.656318 8.69686 0.707338 8.59636 0.791801L7.99603 1.29681V0.541875L7.99515 0.542612ZM14.1187 4.0342C14.1921 3.99858 14.2564 3.95115 14.308 3.89463C14.3596 3.83811 14.3975 3.77361 14.4194 3.70481C14.4413 3.63601 14.4469 3.56425 14.4358 3.49364C14.4247 3.42303 14.3972 3.35494 14.3548 3.29327C14.3124 3.2316 14.2559 3.17755 14.1886 3.13421C14.1213 3.09086 14.0445 3.05908 13.9626 3.04066C13.8807 3.02225 13.7953 3.01756 13.7112 3.02688C13.6272 3.03619 13.5461 3.05933 13.4727 3.09495L12.7662 3.43704L12.9329 2.82955C12.9649 2.71321 12.9456 2.59109 12.8786 2.48578C12.8117 2.38047 12.7016 2.29909 12.5687 2.25671L12.4923 2.23754C12.3539 2.21069 12.2085 2.2269 12.0831 2.28314C11.9577 2.33939 11.8608 2.43188 11.8104 2.54349L11.7876 2.60764L11.3742 4.11161L9.01501 5.25434C8.94159 5.28997 8.87724 5.3374 8.82564 5.39392C8.77404 5.45043 8.7362 5.51494 8.71428 5.58374C8.69235 5.65254 8.68678 5.72429 8.69787 5.79491C8.70896 5.86552 8.7365 5.9336 8.77891 5.99528C8.82133 6.05695 8.87779 6.111 8.94507 6.15434C9.01235 6.19768 9.08914 6.22947 9.17105 6.24789C9.25295 6.2663 9.33838 6.27099 9.42244 6.26167C9.5065 6.25236 9.58755 6.22922 9.66097 6.19359L11.8183 5.14818L13.9905 5.56989C14.1364 5.59959 14.2903 5.58129 14.4207 5.51874C14.5511 5.45619 14.648 5.35412 14.6917 5.23346C14.7353 5.1128 14.7224 4.98268 14.6555 4.86977C14.5886 4.75687 14.4729 4.66973 14.3319 4.62621L14.2547 4.60704L13.313 4.42421L14.1187 4.03347V4.0342ZM9.66097 6.9795L11.4839 7.86198L13.4543 7.4189C13.5977 7.38764 13.75 7.40303 13.8805 7.46201C14.011 7.52098 14.1102 7.61917 14.1582 7.73695C14.2063 7.85472 14.1996 7.98339 14.1395 8.0972C14.0795 8.21101 13.9704 8.30158 13.8343 8.35077L13.7588 8.37289L12.925 8.56015L14.1187 9.13889C14.2669 9.21084 14.3751 9.32933 14.4194 9.46828C14.4637 9.60723 14.4404 9.75527 14.3548 9.87982C14.2691 10.0044 14.128 10.0952 13.9626 10.1324C13.7972 10.1696 13.621 10.1501 13.4727 10.0781L12.294 9.50677L12.5108 10.188C12.5473 10.3032 12.5331 10.4255 12.4707 10.5326C12.4083 10.6396 12.3019 10.7241 12.1711 10.7704L12.0956 10.7925C11.9584 10.8234 11.8125 10.8116 11.6849 10.7591C11.5573 10.7067 11.4566 10.6172 11.4014 10.5072L11.3751 10.4438L10.8546 8.80934L9.01501 7.91875C8.86673 7.84679 8.75855 7.72831 8.71428 7.58935C8.67 7.4504 8.69325 7.30237 8.77891 7.17782C8.86457 7.05326 9.00563 6.9624 9.17105 6.9252C9.33646 6.88801 9.5127 6.90754 9.66097 6.9795ZM7.99515 8.31096C7.99515 8.16705 7.92709 8.02904 7.80595 7.92728C7.68481 7.82552 7.5205 7.76835 7.34918 7.76835C7.17786 7.76835 7.01356 7.82552 6.89242 7.92728C6.77127 8.02904 6.70322 8.16705 6.70322 8.31096V10.5846L5.21468 11.835C5.10821 11.9233 5.04583 12.0424 5.04025 12.168C5.03468 12.2937 5.08633 12.4163 5.18469 12.5111C5.28304 12.6058 5.4207 12.6655 5.56961 12.678C5.71852 12.6904 5.86749 12.6547 5.98616 12.5781L6.04672 12.5339L6.70322 11.9824V12.6305C6.70322 12.7745 6.77132 12.9126 6.89254 13.0144C7.01377 13.1163 7.17818 13.1735 7.34962 13.1735C7.52106 13.1735 7.68547 13.1163 7.8067 13.0144C7.92792 12.9126 7.99603 12.7745 7.99603 12.6305V12.0761L8.54018 12.5339C8.75083 12.7108 9.08171 12.7256 9.31254 12.5781L9.37222 12.5339C9.47277 12.4495 9.53351 12.3373 9.54319 12.2182C9.55287 12.099 9.51084 11.981 9.42488 11.8859L9.37222 11.835L7.99515 10.679V8.31096ZM5.92033 7.17782C5.96279 7.23952 5.99034 7.30764 6.0014 7.3783C6.01247 7.44896 6.00683 7.52075 5.98482 7.58957C5.96281 7.6584 5.92485 7.7229 5.87312 7.77938C5.82139 7.83587 5.75691 7.88323 5.68336 7.91875L3.6182 8.91919L3.30662 10.4011C3.28029 10.524 3.19951 10.6339 3.08054 10.7088C2.96157 10.7837 2.81324 10.818 2.66541 10.8047C2.51757 10.7915 2.38121 10.7316 2.28377 10.6373C2.18632 10.543 2.13502 10.4212 2.1402 10.2964L2.14897 10.23L2.28852 9.56354L1.22654 10.0781C1.07902 10.1411 0.908394 10.1542 0.749754 10.1147C0.591115 10.0752 0.456527 9.98609 0.373673 9.86579C0.29082 9.74548 0.266001 9.60308 0.304323 9.46787C0.342644 9.33266 0.441192 9.21493 0.579695 9.13889L1.60131 8.6442L0.718368 8.51297C0.578342 8.49238 0.451937 8.42987 0.362545 8.33703C0.273152 8.24418 0.226825 8.12728 0.232137 8.00795L0.240914 7.94086C0.265634 7.82325 0.34025 7.71714 0.450946 7.64218C0.561642 7.56723 0.700921 7.5285 0.842997 7.53317L0.921987 7.54054L3.18638 7.87599L5.03827 6.9795C5.18662 6.90781 5.36275 6.88843 5.52807 6.9256C5.6934 6.96277 5.83445 7.05346 5.92033 7.17782ZM1.89182 3.41787L1.22654 3.09495C1.07902 3.03201 0.908394 3.01894 0.749754 3.05844C0.591115 3.09793 0.456527 3.187 0.373673 3.3073C0.29082 3.42761 0.266001 3.57001 0.304323 3.70522C0.342644 3.84043 0.441192 3.95816 0.579695 4.0342L1.3029 4.38366L0.437513 4.57903L0.361155 4.60115C0.223496 4.64951 0.112872 4.74001 0.0516957 4.85433C-0.00948021 4.96865 -0.016632 5.09823 0.0316898 5.21682C0.0800116 5.3354 0.180193 5.43412 0.311934 5.49297C0.443675 5.55182 0.597124 5.5664 0.741187 5.53376L2.74491 5.08257L5.03739 6.19359C5.18491 6.25654 5.35554 6.26961 5.51418 6.23011C5.67282 6.19062 5.80741 6.10155 5.89026 5.98124C5.97311 5.86094 5.99793 5.71853 5.95961 5.58332C5.92129 5.44812 5.82274 5.33038 5.68424 5.25434L3.33208 4.1153L2.82039 2.50811L2.79406 2.4447C2.73892 2.33488 2.63836 2.24551 2.51093 2.19307C2.38351 2.14064 2.23781 2.12867 2.1007 2.15939L2.02434 2.18151C1.8936 2.22783 1.78721 2.3123 1.72478 2.41934C1.66236 2.52637 1.64812 2.64876 1.68469 2.76393L1.89269 3.41713L1.89182 3.41787Z" fill="#1D234E"/>
</svg>
