<svg width="16" height="15" viewBox="0 0 16 15" fill="none" xmlns="http://www.w3.org/2000/svg">
<path fill-rule="evenodd" clip-rule="evenodd" d="M12.5762 0C13.4205 0 14.0954 0.58611 14.0954 1.3005V13.639H14.8063C14.9809 13.639 15.1483 13.6973 15.2718 13.801C15.3952 13.9047 15.4646 14.0453 15.4646 14.192C15.4646 14.3386 15.3952 14.4793 15.2718 14.5829C15.1483 14.6866 14.9809 14.7449 14.8063 14.7449H0.658254C0.483674 14.7449 0.316245 14.6866 0.192798 14.5829C0.0693515 14.4793 0 14.3386 0 14.192C0 14.0453 0.0693515 13.9047 0.192798 13.801C0.316245 13.6973 0.483674 13.639 0.658254 13.639H1.36917V1.3005C1.36917 0.58611 2.04498 0 2.88842 0H12.577H12.5762ZM12.5762 1.10587H2.88842C2.78134 1.10587 2.68656 1.18918 2.68656 1.3005L2.68568 13.639H12.7789V1.3005C12.7789 1.18918 12.6832 1.10587 12.5762 1.10587ZM10.7611 7.18814C10.9939 7.18814 11.2172 7.26581 11.3817 7.40407C11.5463 7.54233 11.6388 7.72985 11.6388 7.92538C11.6388 8.12091 11.5463 8.30843 11.3817 8.44669C11.2172 8.58495 10.9939 8.66263 10.7611 8.66263C10.5284 8.66263 10.3051 8.58495 10.1405 8.44669C9.97594 8.30843 9.88347 8.12091 9.88347 7.92538C9.88347 7.72985 9.97594 7.54233 10.1405 7.40407C10.3051 7.26581 10.5284 7.18814 10.7611 7.18814Z" fill="#1D234E"/>
</svg>
