<svg width="16" height="19" viewBox="0 0 16 19" fill="none" xmlns="http://www.w3.org/2000/svg">
<path d="M2.27934 0.611328C1.81153 0.611302 1.3614 0.790039 1.02104 1.11097C0.680675 1.4319 0.475814 1.87076 0.448369 2.33776L0.445312 2.44535V18.9516H1.668V2.44535C1.66802 2.29562 1.72299 2.15109 1.82249 2.03919C1.92199 1.9273 2.0591 1.85581 2.20781 1.83829L2.27934 1.83401H9.0041C9.15383 1.83403 9.29836 1.88901 9.41025 1.98851C9.52215 2.08801 9.59364 2.22512 9.61116 2.37383L9.61544 2.44535V3.05669H6.55873C6.40899 3.05671 6.26447 3.11169 6.15257 3.21119C6.04067 3.31069 5.96919 3.4478 5.95167 3.59651L5.94739 3.66804V5.50206H4.11336V6.72474H15.7289V5.50206H14.5062V3.66804C14.5062 3.5183 14.4512 3.37378 14.3517 3.26188C14.2522 3.14998 14.1151 3.07849 13.9664 3.06097L13.8948 3.05669H10.8381V2.44535C10.8381 1.97755 10.6594 1.52741 10.3385 1.18705C10.0176 0.846691 9.57869 0.641829 9.11169 0.614385L9.0041 0.611328H2.27934ZM10.2268 17.7289C10.0646 17.7289 9.90914 17.7933 9.7945 17.908C9.67985 18.0226 9.61544 18.1781 9.61544 18.3402C9.61544 18.5024 9.67985 18.6579 9.7945 18.7725C9.90914 18.8872 10.0646 18.9516 10.2268 18.9516C10.3889 18.9516 10.5444 18.8872 10.6591 18.7725C10.7737 18.6579 10.8381 18.5024 10.8381 18.3402C10.8381 18.1781 10.7737 18.0226 10.6591 17.908C10.5444 17.7933 10.3889 17.7289 10.2268 17.7289ZM13.2835 17.7289C13.1214 17.7289 12.9659 17.7933 12.8512 17.908C12.7366 18.0226 12.6721 18.1781 12.6721 18.3402C12.6721 18.5024 12.7366 18.6579 12.8512 18.7725C12.9659 18.8872 13.1214 18.9516 13.2835 18.9516C13.4456 18.9516 13.6011 18.8872 13.7158 18.7725C13.8304 18.6579 13.8948 18.5024 13.8948 18.3402C13.8948 18.1781 13.8304 18.0226 13.7158 17.908C13.6011 17.7933 13.4456 17.7289 13.2835 17.7289ZM7.17007 17.7289C7.00793 17.7289 6.85244 17.7933 6.73779 17.908C6.62314 18.0226 6.55873 18.1781 6.55873 18.3402C6.55873 18.5024 6.62314 18.6579 6.73779 18.7725C6.85244 18.8872 7.00793 18.9516 7.17007 18.9516C7.33221 18.9516 7.48771 18.8872 7.60236 18.7725C7.717 18.6579 7.78141 18.5024 7.78141 18.3402C7.78141 18.1781 7.717 18.0226 7.60236 17.908C7.48771 17.7933 7.33221 17.7289 7.17007 17.7289ZM10.2268 15.2835C10.0646 15.2835 9.90914 15.3479 9.7945 15.4626C9.67985 15.5772 9.61544 15.7327 9.61544 15.8949C9.61544 16.057 9.67985 16.2125 9.7945 16.3272C9.90914 16.4418 10.0646 16.5062 10.2268 16.5062C10.3889 16.5062 10.5444 16.4418 10.6591 16.3272C10.7737 16.2125 10.8381 16.057 10.8381 15.8949C10.8381 15.7327 10.7737 15.5772 10.6591 15.4626C10.5444 15.3479 10.3889 15.2835 10.2268 15.2835ZM13.2835 15.2835C13.1214 15.2835 12.9659 15.3479 12.8512 15.4626C12.7366 15.5772 12.6721 15.7327 12.6721 15.8949C12.6721 16.057 12.7366 16.2125 12.8512 16.3272C12.9659 16.4418 13.1214 16.5062 13.2835 16.5062C13.4456 16.5062 13.6011 16.4418 13.7158 16.3272C13.8304 16.2125 13.8948 16.057 13.8948 15.8949C13.8948 15.7327 13.8304 15.5772 13.7158 15.4626C13.6011 15.3479 13.4456 15.2835 13.2835 15.2835ZM7.17007 15.2835C7.00793 15.2835 6.85244 15.3479 6.73779 15.4626C6.62314 15.5772 6.55873 15.7327 6.55873 15.8949C6.55873 16.057 6.62314 16.2125 6.73779 16.3272C6.85244 16.4418 7.00793 16.5062 7.17007 16.5062C7.33221 16.5062 7.48771 16.4418 7.60236 16.3272C7.717 16.2125 7.78141 16.057 7.78141 15.8949C7.78141 15.7327 7.717 15.5772 7.60236 15.4626C7.48771 15.3479 7.33221 15.2835 7.17007 15.2835ZM10.2268 12.8382C10.0646 12.8382 9.90914 12.9026 9.7945 13.0172C9.67985 13.1319 9.61544 13.2874 9.61544 13.4495C9.61544 13.6116 9.67985 13.7671 9.7945 13.8818C9.90914 13.9964 10.0646 14.0608 10.2268 14.0608C10.3889 14.0608 10.5444 13.9964 10.6591 13.8818C10.7737 13.7671 10.8381 13.6116 10.8381 13.4495C10.8381 13.2874 10.7737 13.1319 10.6591 13.0172C10.5444 12.9026 10.3889 12.8382 10.2268 12.8382ZM13.2835 12.8382C13.1214 12.8382 12.9659 12.9026 12.8512 13.0172C12.7366 13.1319 12.6721 13.2874 12.6721 13.4495C12.6721 13.6116 12.7366 13.7671 12.8512 13.8818C12.9659 13.9964 13.1214 14.0608 13.2835 14.0608C13.4456 14.0608 13.6011 13.9964 13.7158 13.8818C13.8304 13.7671 13.8948 13.6116 13.8948 13.4495C13.8948 13.2874 13.8304 13.1319 13.7158 13.0172C13.6011 12.9026 13.4456 12.8382 13.2835 12.8382ZM7.17007 12.8382C7.00793 12.8382 6.85244 12.9026 6.73779 13.0172C6.62314 13.1319 6.55873 13.2874 6.55873 13.4495C6.55873 13.6116 6.62314 13.7671 6.73779 13.8818C6.85244 13.9964 7.00793 14.0608 7.17007 14.0608C7.33221 14.0608 7.48771 13.9964 7.60236 13.8818C7.717 13.7671 7.78141 13.6116 7.78141 13.4495C7.78141 13.2874 7.717 13.1319 7.60236 13.0172C7.48771 12.9026 7.33221 12.8382 7.17007 12.8382ZM10.2268 10.3928C10.0646 10.3928 9.90914 10.4572 9.7945 10.5719C9.67985 10.6865 9.61544 10.842 9.61544 11.0041C9.61544 11.1663 9.67985 11.3218 9.7945 11.4364C9.90914 11.5511 10.0646 11.6155 10.2268 11.6155C10.3889 11.6155 10.5444 11.5511 10.6591 11.4364C10.7737 11.3218 10.8381 11.1663 10.8381 11.0041C10.8381 10.842 10.7737 10.6865 10.6591 10.5719C10.5444 10.4572 10.3889 10.3928 10.2268 10.3928ZM13.2835 10.3928C13.1214 10.3928 12.9659 10.4572 12.8512 10.5719C12.7366 10.6865 12.6721 10.842 12.6721 11.0041C12.6721 11.1663 12.7366 11.3218 12.8512 11.4364C12.9659 11.5511 13.1214 11.6155 13.2835 11.6155C13.4456 11.6155 13.6011 11.5511 13.7158 11.4364C13.8304 11.3218 13.8948 11.1663 13.8948 11.0041C13.8948 10.842 13.8304 10.6865 13.7158 10.5719C13.6011 10.4572 13.4456 10.3928 13.2835 10.3928ZM7.17007 10.3928C7.00793 10.3928 6.85244 10.4572 6.73779 10.5719C6.62314 10.6865 6.55873 10.842 6.55873 11.0041C6.55873 11.1663 6.62314 11.3218 6.73779 11.4364C6.85244 11.5511 7.00793 11.6155 7.17007 11.6155C7.33221 11.6155 7.48771 11.5511 7.60236 11.4364C7.717 11.3218 7.78141 11.1663 7.78141 11.0041C7.78141 10.842 7.717 10.6865 7.60236 10.5719C7.48771 10.4572 7.33221 10.3928 7.17007 10.3928ZM10.2268 7.94743C10.0646 7.94743 9.90914 8.01184 9.7945 8.12649C9.67985 8.24113 9.61544 8.39663 9.61544 8.55877C9.61544 8.72091 9.67985 8.8764 9.7945 8.99105C9.90914 9.1057 10.0646 9.17011 10.2268 9.17011C10.3889 9.17011 10.5444 9.1057 10.6591 8.99105C10.7737 8.8764 10.8381 8.72091 10.8381 8.55877C10.8381 8.39663 10.7737 8.24113 10.6591 8.12649C10.5444 8.01184 10.3889 7.94743 10.2268 7.94743ZM7.17007 7.94743C7.00793 7.94743 6.85244 8.01184 6.73779 8.12649C6.62314 8.24113 6.55873 8.39663 6.55873 8.55877C6.55873 8.72091 6.62314 8.8764 6.73779 8.99105C6.85244 9.1057 7.00793 9.17011 7.17007 9.17011C7.33221 9.17011 7.48771 9.1057 7.60236 8.99105C7.717 8.8764 7.78141 8.72091 7.78141 8.55877C7.78141 8.39663 7.717 8.24113 7.60236 8.12649C7.48771 8.01184 7.33221 7.94743 7.17007 7.94743ZM13.2835 7.94743C13.1214 7.94743 12.9659 8.01184 12.8512 8.12649C12.7366 8.24113 12.6721 8.39663 12.6721 8.55877C12.6721 8.72091 12.7366 8.8764 12.8512 8.99105C12.9659 9.1057 13.1214 9.17011 13.2835 9.17011C13.4456 9.17011 13.6011 9.1057 13.7158 8.99105C13.8304 8.8764 13.8948 8.72091 13.8948 8.55877C13.8948 8.39663 13.8304 8.24113 13.7158 8.12649C13.6011 8.01184 13.4456 7.94743 13.2835 7.94743ZM7.17007 4.27938H13.2835V5.50206H7.17007V4.27938Z" fill="#191C1F"/>
</svg>
