<svg width="20" height="18" viewBox="0 0 20 18" fill="none" xmlns="http://www.w3.org/2000/svg">
<path d="M17.1178 0.222656C17.4262 0.222559 17.7233 0.33906 17.9495 0.548805C18.1757 0.758551 18.3142 1.04604 18.3374 1.35364L18.3404 1.44534L18.3398 7.4585L19.469 10.8453C19.5 10.9387 19.5236 11.0343 19.5393 11.1314L19.5576 11.2782L19.5631 11.4249V17.3402H18.3404V16.1175H1.22287V17.3402H0.000183105V11.4255C0.000194849 11.2778 0.0180531 11.1306 0.0533698 10.9872L0.0943297 10.8453L1.22225 7.46033L1.22287 1.44534C1.22285 1.15316 1.32747 0.870627 1.51778 0.648919C1.70809 0.427211 1.9715 0.280983 2.26031 0.236717L2.35446 0.225713L2.44555 0.222656H17.1178ZM18.3398 12.4495H1.22287L1.22225 14.8942H18.3398V12.4495ZM17.4919 8.78144H2.0708L1.25588 11.2268H18.3068L17.4919 8.78144ZM17.1178 1.44534H2.44555L2.44494 7.55876H3.66823V5.11339C3.66814 4.80492 3.78464 4.50781 3.99438 4.28163C4.20413 4.05544 4.49162 3.9169 4.79921 3.89376L4.89092 3.89071H14.6724C14.9809 3.89061 15.278 4.00711 15.5041 4.21686C15.7303 4.4266 15.8689 4.71409 15.892 5.02169L15.8951 5.11339V7.55876H17.1171L17.1178 1.44534ZM9.17031 5.11339H4.89092V7.55876H9.17031V5.11339ZM14.6724 5.11339H10.393V7.55876H14.6724V5.11339Z" fill="#191C1F"/>
</svg>
