<svg width="21" height="19" viewBox="0 0 21 19" fill="none" xmlns="http://www.w3.org/2000/svg">
<path fill-rule="evenodd" clip-rule="evenodd" d="M19.5322 13.4587C19.5322 13.9337 19.1925 14.2503 18.683 14.2503H1.69789C1.18833 14.2503 0.848633 13.9337 0.848633 13.4587C0.848633 12.9837 1.18833 12.667 1.69789 12.667C2.63207 12.667 3.39639 11.9545 3.39639 11.0837V7.12533C3.39639 3.64199 6.45371 0.791992 10.1904 0.791992C13.9271 0.791992 16.9845 3.64199 16.9845 7.12533V11.0837C16.9845 11.9545 17.7488 12.667 18.683 12.667C19.1925 12.667 19.5322 12.9837 19.5322 13.4587ZM12.3982 17.0213C11.8886 17.813 11.0394 18.2088 10.1901 18.2088C9.76549 18.2088 9.34086 18.1296 8.91623 17.8921C8.49161 17.6546 8.23683 17.4171 7.98206 17.0213C7.72728 16.6255 7.89713 16.1505 8.32176 15.913C8.74638 15.6755 9.25594 15.8338 9.51071 16.2296C9.53643 16.2536 9.56214 16.2848 9.59021 16.3189C9.65485 16.3974 9.73199 16.4911 9.85041 16.5463C10.275 16.7838 10.7846 16.6255 11.0394 16.2296C11.2941 15.8338 11.8037 15.7546 12.2283 15.913C12.653 16.0713 12.653 16.6255 12.3982 17.0213ZM15.2859 11.0838C15.2859 11.638 15.4558 12.1922 15.7106 12.6672H4.67028C4.92505 12.1922 5.0949 11.638 5.0949 11.0838V7.1255C5.0949 4.513 7.38789 2.3755 10.1904 2.3755C12.993 2.3755 15.2859 4.513 15.2859 7.1255V11.0838Z" fill="black"/>
<mask id="mask0_1_1018" style="mask-type:luminance" maskUnits="userSpaceOnUse" x="0" y="0" width="20" height="19">
<path fill-rule="evenodd" clip-rule="evenodd" d="M19.5322 13.4587C19.5322 13.9337 19.1925 14.2503 18.683 14.2503H1.69789C1.18833 14.2503 0.848633 13.9337 0.848633 13.4587C0.848633 12.9837 1.18833 12.667 1.69789 12.667C2.63207 12.667 3.39639 11.9545 3.39639 11.0837V7.12533C3.39639 3.64199 6.45371 0.791992 10.1904 0.791992C13.9271 0.791992 16.9845 3.64199 16.9845 7.12533V11.0837C16.9845 11.9545 17.7488 12.667 18.683 12.667C19.1925 12.667 19.5322 12.9837 19.5322 13.4587ZM12.3982 17.0213C11.8886 17.813 11.0394 18.2088 10.1901 18.2088C9.76549 18.2088 9.34086 18.1296 8.91623 17.8921C8.49161 17.6546 8.23683 17.4171 7.98206 17.0213C7.72728 16.6255 7.89713 16.1505 8.32176 15.913C8.74638 15.6755 9.25594 15.8338 9.51071 16.2296C9.53643 16.2536 9.56214 16.2848 9.59021 16.3189C9.65485 16.3974 9.73199 16.4911 9.85041 16.5463C10.275 16.7838 10.7846 16.6255 11.0394 16.2296C11.2941 15.8338 11.8037 15.7546 12.2283 15.913C12.653 16.0713 12.653 16.6255 12.3982 17.0213ZM15.2859 11.0838C15.2859 11.638 15.4558 12.1922 15.7106 12.6672H4.67028C4.92505 12.1922 5.0949 11.638 5.0949 11.0838V7.1255C5.0949 4.513 7.38789 2.3755 10.1904 2.3755C12.993 2.3755 15.2859 4.513 15.2859 7.1255V11.0838Z" fill="white"/>
</mask>
<g mask="url(#mask0_1_1018)">
<rect width="20.3821" height="19" fill="white"/>
</g>
</svg>
