<svg width="15" height="15" viewBox="0 0 15 15" fill="none" xmlns="http://www.w3.org/2000/svg">
<path d="M9.59222 11.1719C10.9567 11.0126 12.2973 10.695 13.5862 10.2257C12.4946 9.03295 11.8915 7.4826 11.8939 5.87576V5.37013V5.33401C11.8939 4.18456 11.4309 3.08219 10.6069 2.2694C9.78293 1.45662 8.66533 1 7.5 1C6.33467 1 5.21708 1.45662 4.39306 2.2694C3.56905 3.08219 3.10613 4.18456 3.10613 5.33401V5.87576C3.10834 7.48269 2.50489 9.03306 1.41302 10.2257C2.68212 10.688 4.02005 11.0094 5.40779 11.1719M9.59222 11.1719C8.20228 11.3346 6.79772 11.3346 5.40779 11.1719M9.59222 11.1719C9.69774 11.4969 9.72399 11.8418 9.66881 12.1787C9.61363 12.5155 9.47858 12.8347 9.27467 13.1104C9.07076 13.386 8.80374 13.6102 8.49535 13.7648C8.18697 13.9194 7.84593 14 7.5 14C7.15407 14 6.81303 13.9194 6.50465 13.7648C6.19626 13.6102 5.92924 13.386 5.72533 13.1104C5.52142 12.8347 5.38638 12.5155 5.3312 12.1787C5.27601 11.8418 5.30226 11.4969 5.40779 11.1719M1 4.25051C1.20649 3.04057 1.75706 1.91335 2.58765 1M12.4123 1C13.2429 1.91335 13.7935 3.04057 14 4.25051" stroke="#1D234E" stroke-width="1.4" stroke-linecap="round" stroke-linejoin="round"/>
</svg>
