<svg width="33" height="30" viewBox="0 0 33 30" fill="none" xmlns="http://www.w3.org/2000/svg">
<path d="M30.3945 5.737H21.1824V2.58953C21.1812 2.03347 20.9382 1.49945 20.5064 1.10602C20.0757 0.713632 19.4896 0.492261 18.8793 0.491211H2.75811C2.14781 0.492261 1.56168 0.712584 1.12987 1.10602C0.698048 1.49945 0.45623 2.03347 0.455078 2.58953V27.7693C0.45623 28.3254 0.699199 28.8594 1.12987 29.2518C1.56168 29.6452 2.14781 29.8666 2.75811 29.8676H30.3945C31.0048 29.8666 31.5897 29.6452 32.0216 29.2518C32.4534 28.8584 32.6964 28.3254 32.6975 27.7693V7.83532C32.6964 7.27926 32.4534 6.74524 32.0216 6.35181C31.5909 5.95942 31.0048 5.73805 30.3945 5.737ZM13.1217 27.7693H8.51568V22.5235H13.1217V27.7693ZM18.8793 27.7693H15.4248V22.5235C15.4236 21.9675 15.1807 21.4335 14.7488 21.0411C14.3182 20.6476 13.732 20.4263 13.1217 20.4252H8.51568C7.90538 20.4263 7.31926 20.6476 6.88744 21.0411C6.45677 21.4335 6.21381 21.9675 6.21265 22.5235V27.7693H2.75811L2.75696 2.58953H18.8793V27.7693ZM30.3945 27.7693H21.1824V7.83532H30.3945V27.7693ZM26.9399 15.1794C26.9399 15.3872 26.872 15.5896 26.7453 15.7628C26.6198 15.9348 26.439 16.0691 26.2294 16.1488C26.0187 16.2286 25.7873 16.2485 25.5639 16.2086C25.3405 16.1677 25.1355 16.0681 24.9743 15.9212C24.8131 15.7743 24.7037 15.5875 24.6588 15.384C24.615 15.1805 24.6369 14.9696 24.7244 14.7776C24.8119 14.5867 24.9593 14.4219 25.1482 14.3076C25.3382 14.1922 25.5604 14.1303 25.7884 14.1303C26.0936 14.1303 26.3872 14.2404 26.6025 14.4377C26.819 14.6339 26.9399 14.9014 26.9399 15.1794ZM24.6369 10.9828C24.6369 10.7751 24.7048 10.5726 24.8315 10.3995C24.957 10.2274 25.1378 10.0931 25.3474 10.0134C25.5581 9.93363 25.7896 9.9137 26.013 9.95357C26.2364 9.99449 26.4413 10.0942 26.6025 10.241C26.7637 10.3879 26.8731 10.5747 26.918 10.7782C26.9618 10.9817 26.9399 11.1926 26.8524 11.3846C26.7649 11.5756 26.6175 11.7403 26.4287 11.8546C26.2387 11.9701 26.0164 12.032 25.7884 12.032C25.4833 12.032 25.1896 11.9218 24.9743 11.7245C24.7578 11.5284 24.6369 11.2608 24.6369 10.9828ZM15.4248 15.1794C15.4248 15.3872 15.3568 15.5896 15.2302 15.7628C15.1047 15.9348 14.9239 16.0691 14.7143 16.1488C14.5036 16.2286 14.2721 16.2485 14.0487 16.2086C13.8253 16.1677 13.6204 16.0681 13.4591 15.9212C13.2979 15.7743 13.1885 15.5875 13.1436 15.384C13.0999 15.1805 13.1217 14.9696 13.2093 14.7776C13.2968 14.5867 13.4442 14.4219 13.633 14.3076C13.823 14.1922 14.0453 14.1303 14.2733 14.1303C14.5784 14.1303 14.872 14.2404 15.0874 14.4377C15.3039 14.6339 15.4248 14.9014 15.4248 15.1794ZM15.4248 10.9828C15.4248 11.1905 15.3568 11.393 15.2302 11.5661C15.1047 11.7382 14.9239 11.8725 14.7143 11.9522C14.5036 12.032 14.2721 12.0519 14.0487 12.012C13.8253 11.9711 13.6204 11.8714 13.4591 11.7245C13.2979 11.5777 13.1885 11.3909 13.1436 11.1874C13.0999 10.9838 13.1217 10.773 13.2093 10.581C13.2968 10.39 13.4442 10.2253 13.633 10.1109C13.823 9.99554 14.0453 9.93363 14.2733 9.93363C14.5784 9.93363 14.872 10.0438 15.0874 10.241C15.3039 10.4372 15.4248 10.7048 15.4248 10.9828ZM15.4248 6.78616C15.4248 6.99389 15.3568 7.19638 15.2302 7.36949C15.1047 7.54155 14.9239 7.67585 14.7143 7.75558C14.5036 7.83532 14.2721 7.85525 14.0487 7.81538C13.8253 7.77447 13.6204 7.6748 13.4591 7.52792C13.2979 7.38103 13.1885 7.19428 13.1436 6.99075C13.0999 6.78721 13.1217 6.57633 13.2093 6.38433C13.2968 6.19339 13.4442 6.02867 13.633 5.91431C13.823 5.7989 14.0453 5.737 14.2733 5.737C14.5784 5.737 14.872 5.84716 15.0874 6.04441C15.3039 6.2406 15.4248 6.50813 15.4248 6.78616ZM8.51568 15.1794C8.51568 15.3872 8.44774 15.5896 8.32108 15.7628C8.19556 15.9348 8.01477 16.0691 7.8052 16.1488C7.59447 16.2286 7.36302 16.2485 7.13962 16.2086C6.91623 16.1677 6.71126 16.0681 6.55005 15.9212C6.38884 15.7743 6.27944 15.5875 6.23453 15.384C6.19077 15.1805 6.21265 14.9696 6.30017 14.7776C6.38768 14.5867 6.53508 14.4219 6.72393 14.3076C6.91393 14.1922 7.13617 14.1303 7.36417 14.1303C7.66932 14.1303 7.96296 14.2404 8.17829 14.4377C8.39477 14.6339 8.51568 14.9014 8.51568 15.1794ZM8.51568 10.9828C8.51568 11.1905 8.44774 11.393 8.32108 11.5661C8.19556 11.7382 8.01477 11.8725 7.8052 11.9522C7.59447 12.032 7.36302 12.0519 7.13962 12.012C6.91623 11.9711 6.71126 11.8714 6.55005 11.7245C6.38884 11.5777 6.27944 11.3909 6.23453 11.1874C6.19077 10.9838 6.21265 10.773 6.30017 10.581C6.38768 10.39 6.53508 10.2253 6.72393 10.1109C6.91393 9.99554 7.13617 9.93363 7.36417 9.93363C7.66932 9.93363 7.96296 10.0438 8.17829 10.241C8.39477 10.4372 8.51568 10.7048 8.51568 10.9828ZM8.51568 6.78616C8.51568 6.99389 8.44774 7.19638 8.32108 7.36949C8.19556 7.54155 8.01477 7.67585 7.8052 7.75558C7.59447 7.83532 7.36302 7.85525 7.13962 7.81538C6.91623 7.77447 6.71126 7.6748 6.55005 7.52792C6.38884 7.38103 6.27944 7.19428 6.23453 6.99075C6.19077 6.78721 6.21265 6.57633 6.30017 6.38433C6.38768 6.19339 6.53508 6.02867 6.72393 5.91431C6.91393 5.7989 7.13617 5.737 7.36417 5.737C7.66932 5.737 7.96296 5.84716 8.17829 6.04441C8.39477 6.2406 8.51568 6.50813 8.51568 6.78616Z" fill="#222222"/>
</svg>
