<svg width="25" height="25" viewBox="0 0 25 25" fill="none" xmlns="http://www.w3.org/2000/svg">
<g clip-path="url(#clip0_1_5429)">
<path d="M19.5644 14.297C19.5644 14.4966 19.4851 14.688 19.3439 14.8291C19.2028 14.9702 19.0114 15.0495 18.8118 15.0495C18.6123 15.0495 18.4208 14.9702 18.2797 14.8291C18.1386 14.688 18.0593 14.4966 18.0593 14.297C18.0593 14.0974 18.1386 13.906 18.2797 13.7649C18.4208 13.6237 18.6123 13.5445 18.8118 13.5445C19.0114 13.5445 19.2028 13.6237 19.3439 13.7649C19.4851 13.906 19.5644 14.0974 19.5644 14.297ZM5.2665 13.5445C5.06692 13.5445 4.87551 13.6237 4.73439 13.7649C4.59326 13.906 4.51398 14.0974 4.51398 14.297C4.51398 14.4966 4.59326 14.688 4.73439 14.8291C4.87551 14.9702 5.06692 15.0495 5.2665 15.0495C5.46608 15.0495 5.65749 14.9702 5.79861 14.8291C5.93974 14.688 6.01902 14.4966 6.01902 14.297C6.01902 14.0974 5.93974 13.906 5.79861 13.7649C5.65749 13.6237 5.46608 13.5445 5.2665 13.5445ZM20.8384 9.78187L21.1544 10.6239C22.0123 11.314 22.5744 12.36 22.5744 13.5445V20.3171C22.5744 21.1472 21.8994 21.8222 21.0694 21.8222H19.5644C18.7343 21.8222 18.0593 21.1472 18.0593 20.3171V18.8121H6.01902V20.3171C6.01902 21.1472 5.34401 21.8222 4.51398 21.8222H3.00894C2.17892 21.8222 1.50391 21.1472 1.50391 20.3171V13.5445C1.50391 12.3592 2.06529 11.3132 2.92466 10.6232L3.24072 9.78187H1.50391V8.27683H3.76146V8.39121L5.13105 4.73849C5.23942 4.45209 5.4322 4.20535 5.68389 4.03093C5.93558 3.85651 6.2343 3.76263 6.54051 3.76172H17.5378C18.1617 3.76172 18.7268 4.15378 18.9473 4.73774L20.3169 8.39046V8.27683H22.5744V9.78187H20.8384ZM4.51398 18.8121H3.00894V20.3171H4.51398V18.8121ZM21.0694 18.8121H19.5644V20.3171H21.0694V18.8121ZM21.0694 17.3071V13.5445C21.0694 12.2998 20.0565 11.2869 18.8118 11.2869H5.2665C4.02183 11.2869 3.00894 12.2998 3.00894 13.5445V17.3071H21.0694ZM18.8118 9.78187H19.231L17.5378 5.26676H6.54051L4.84735 9.78187H18.8118ZM7.52406 15.0495H16.5543V13.5445H7.52406V15.0495Z" fill="#191C1F"/>
</g>
<defs>
<clipPath id="clip0_1_5429">
<rect width="24.0806" height="24.0806" fill="white"/>
</clipPath>
</defs>
</svg>
