<svg width="23" height="23" viewBox="0 0 23 23" fill="none" xmlns="http://www.w3.org/2000/svg">
<g clip-path="url(#clip0_133_16682)">
<path d="M11.4867 22.8479C17.7611 22.8479 22.8475 17.7616 22.8475 11.4872C22.8475 5.21284 17.7611 0.126465 11.4867 0.126465C5.21235 0.126465 0.125977 5.21284 0.125977 11.4872C0.125977 17.7616 5.21235 22.8479 11.4867 22.8479Z" fill="white"/>
<path d="M9.84058 16.4103C9.83806 16.4103 9.83553 16.4103 9.83326 16.4103C9.50506 16.408 9.19378 16.2641 8.97969 16.0157L5.57702 12.0639C5.16753 11.5886 5.22105 10.8711 5.69669 10.4616C6.17232 10.0523 6.88956 10.1059 7.29906 10.5812L9.85194 13.5461L15.6853 6.94808C16.1006 6.478 16.8186 6.43382 17.2889 6.84937C17.759 7.26492 17.8032 7.98292 17.3876 8.453L10.6921 16.0268C10.476 16.2707 10.166 16.4103 9.84058 16.4103Z" fill="#28C937"/>
</g>
<defs>
<clipPath id="clip0_133_16682">
<rect width="23" height="23" fill="white"/>
</clipPath>
</defs>
</svg>
