<svg width="18" height="19" viewBox="0 0 18 19" fill="none" xmlns="http://www.w3.org/2000/svg">
<path d="M3.2168 13.7964L5.51953 12.1792H11.5664C11.6133 12.1792 11.6572 12.1587 11.6982 12.1177C11.7393 12.0767 11.7598 12.0269 11.7598 11.9683V5.04248H13.2891C13.3477 5.04248 13.3975 5.06299 13.4385 5.104C13.4795 5.14502 13.5 5.18896 13.5 5.23584V13.603C13.5 13.6499 13.4795 13.6938 13.4385 13.7349C13.3975 13.7759 13.3477 13.7964 13.2891 13.7964H11.7773V15.9409C11.7773 15.9526 11.7715 15.9702 11.7598 15.9937C11.748 16.0171 11.7363 16.0347 11.7246 16.0464C11.7012 16.0933 11.6602 16.1226 11.6016 16.1343C11.543 16.146 11.4902 16.1343 11.4434 16.0991L8.19141 13.7964H3.2168ZM0.210938 2.07178H10.4238C10.4824 2.07178 10.5322 2.09229 10.5732 2.1333C10.6143 2.17432 10.6348 2.22412 10.6348 2.28271V10.6323C10.6348 10.6909 10.6143 10.7407 10.5732 10.7817C10.5322 10.8228 10.4824 10.8433 10.4238 10.8433H5.30859L2.05664 13.1284C2.00977 13.1636 1.95703 13.1782 1.89844 13.1724C1.83984 13.1665 1.79883 13.1401 1.77539 13.0933C1.76367 13.0698 1.75195 13.0493 1.74023 13.0317C1.72852 13.0142 1.72266 12.9937 1.72266 12.9702V10.8433H0.210938C0.152344 10.8433 0.102539 10.8228 0.0615234 10.7817C0.0205078 10.7407 0 10.6909 0 10.6323V2.28271C0 2.22412 0.0205078 2.17432 0.0615234 2.1333C0.102539 2.09229 0.152344 2.07178 0.210938 2.07178ZM1.63477 4.40967V5.30615H9V4.40967H1.63477ZM1.63477 6.64209V7.53857H7.36523V6.64209H1.63477Z" fill="#191C1F"/>
</svg>
