<svg width="12" height="15" viewBox="0 0 12 15" fill="none" xmlns="http://www.w3.org/2000/svg">
<path fill-rule="evenodd" clip-rule="evenodd" d="M1.11464 1.4386L1.10762 1.43196C1.03697 1.36102 1.00203 1.26974 1.01023 1.1775C1.01842 1.08527 1.0691 0.999351 1.15151 0.938006C1.2372 0.873801 1.34792 0.838196 1.46275 0.837924C1.57757 0.837653 1.68854 0.872733 1.77465 0.936531L3.03587 1.88537L4.28655 0.931371L4.32341 0.907779L4.33131 0.903355C4.41735 0.855274 4.51984 0.832325 4.62295 0.838055C4.72606 0.843785 4.82406 0.877874 4.9018 0.935057C5.09313 1.07882 5.09489 1.32358 4.90443 1.46808L3.34393 2.65874L3.30795 2.68306L3.29917 2.68749C3.21304 2.73547 3.1105 2.75829 3.00739 2.75243C2.90427 2.74657 2.80633 2.71234 2.72868 2.65505L1.14624 1.46661L1.11464 1.4386ZM10.741 2.15888L10.7348 2.15151L10.7023 2.12423L9.12077 0.935057C9.04296 0.8777 8.94479 0.843505 8.84149 0.837774C8.73819 0.832042 8.63553 0.855094 8.54941 0.903355L8.54151 0.907779L8.50552 0.931371L6.94327 2.12202C6.89854 2.15559 6.86281 2.19675 6.83842 2.24277C6.81404 2.2888 6.80156 2.33865 6.8018 2.38903C6.80205 2.43941 6.81503 2.48917 6.83987 2.53503C6.86471 2.58089 6.90085 2.62179 6.9459 2.65505C7.02361 2.71252 7.12173 2.74685 7.22503 2.75271C7.32833 2.75858 7.43105 2.73565 7.51726 2.68749L7.52604 2.68306L7.56115 2.65874L8.81271 1.70474L10.0748 2.65357C10.2503 2.78554 10.5224 2.7848 10.6979 2.6521C10.7802 2.59065 10.8307 2.50468 10.8388 2.41245C10.8468 2.32022 10.8117 2.22973 10.741 2.15888ZM0 4.52323C0 4.37658 0.0693515 4.23594 0.192798 4.13224C0.316245 4.02855 0.483674 3.97029 0.658254 3.97029H11.1903C11.3649 3.97029 11.5323 4.02855 11.6558 4.13224C11.7792 4.23594 11.8486 4.37658 11.8486 4.52323V14.1074C11.8486 14.2541 11.7792 14.3947 11.6558 14.4984C11.5323 14.6021 11.3649 14.6603 11.1903 14.6603H0.658254C0.483674 14.6603 0.316245 14.6021 0.192798 14.4984C0.0693515 14.3947 0 14.2541 0 14.1074V4.52323ZM5.26604 13.5545V5.07616H1.31651V13.5545H5.26604ZM6.58254 13.5545H10.5321V5.07616H6.58254V13.5545Z" fill="#191C1F"/>
</svg>
