<svg width="16" height="17" viewBox="0 0 16 17" fill="none" xmlns="http://www.w3.org/2000/svg">
<path d="M12.5 4.5V2C12.5 1.73478 12.3946 1.48043 12.2071 1.29289C12.0196 1.10536 11.7652 1 11.5 1H4.5C4.23478 1 3.98043 1.10536 3.79289 1.29289C3.60536 1.48043 3.5 1.73478 3.5 2V4.5C3.50109 5.32755 3.73036 6.13877 4.1626 6.84447C4.59484 7.55017 5.21331 8.12301 5.95 8.5C5.21331 8.87699 4.59484 9.44983 4.1626 10.1555C3.73036 10.8612 3.50109 11.6725 3.5 12.5V15C3.5 15.55 3.95 16 4.5 16H11.5C11.7652 16 12.0196 15.8946 12.2071 15.7071C12.3946 15.5196 12.5 15.2652 12.5 15V12.5C12.4989 11.6725 12.2696 10.8612 11.8374 10.1555C11.4052 9.44983 10.7867 8.87699 10.05 8.5C10.7867 8.12301 11.4052 7.55017 11.8374 6.84447C12.2696 6.13877 12.4989 5.32755 12.5 4.5ZM8 2.5C8.09849 2.5 8.19602 2.5194 8.28701 2.55709C8.37801 2.59478 8.46069 2.65003 8.53033 2.71967C8.59997 2.78931 8.65522 2.87199 8.69291 2.96299C8.7306 3.05398 8.75 3.15151 8.75 3.25C8.75 3.34849 8.7306 3.44602 8.69291 3.53701C8.65522 3.62801 8.59997 3.71069 8.53033 3.78033C8.46069 3.84997 8.37801 3.90522 8.28701 3.94291C8.19602 3.9806 8.09849 4 8 4C7.80109 4 7.61032 3.92098 7.46967 3.78033C7.32902 3.63968 7.25 3.44891 7.25 3.25C7.25 3.05109 7.32902 2.86032 7.46967 2.71967C7.61032 2.57902 7.80109 2.5 8 2.5ZM5.5 4C5.40151 4 5.30398 3.9806 5.21299 3.94291C5.12199 3.90522 5.03931 3.84997 4.96967 3.78033C4.90003 3.71069 4.84478 3.62801 4.80709 3.53701C4.7694 3.44602 4.75 3.34849 4.75 3.25C4.75 3.15151 4.7694 3.05398 4.80709 2.96299C4.84478 2.87199 4.90003 2.78931 4.96967 2.71967C5.03931 2.65003 5.12199 2.59478 5.21299 2.55709C5.30398 2.5194 5.40151 2.5 5.5 2.5C5.69891 2.5 5.88968 2.57902 6.03033 2.71967C6.17098 2.86032 6.25 3.05109 6.25 3.25C6.25 3.44891 6.17098 3.63968 6.03033 3.78033C5.88968 3.92098 5.69891 4 5.5 4ZM6 5.75C6 5.55109 6.07902 5.36032 6.21967 5.21967C6.36032 5.07902 6.55109 5 6.75 5C6.94891 5 7.13968 5.07902 7.28033 5.21967C7.42098 5.36032 7.5 5.55109 7.5 5.75C7.5 5.94891 7.42098 6.13968 7.28033 6.28033C7.13968 6.42098 6.94891 6.5 6.75 6.5C6.55109 6.5 6.36032 6.42098 6.21967 6.28033C6.07902 6.13968 6 5.94891 6 5.75ZM8 14.25C7.80109 14.25 7.61032 14.171 7.46967 14.0303C7.32902 13.8897 7.25 13.6989 7.25 13.5C7.25 13.3011 7.32902 13.1103 7.46967 12.9697C7.61032 12.829 7.80109 12.75 8 12.75C8.19891 12.75 8.38968 12.829 8.53033 12.9697C8.67098 13.1103 8.75 13.3011 8.75 13.5C8.75 13.6989 8.67098 13.8897 8.53033 14.0303C8.38968 14.171 8.19891 14.25 8 14.25ZM8 11.75C7.80109 11.75 7.61032 11.671 7.46967 11.5303C7.32902 11.3897 7.25 11.1989 7.25 11C7.25 10.8011 7.32902 10.6103 7.46967 10.4697C7.61032 10.329 7.80109 10.25 8 10.25C8.19891 10.25 8.38968 10.329 8.53033 10.4697C8.67098 10.6103 8.75 10.8011 8.75 11C8.75 11.1989 8.67098 11.3897 8.53033 11.5303C8.38968 11.671 8.19891 11.75 8 11.75ZM8 9.25C7.80109 9.25 7.61032 9.17098 7.46967 9.03033C7.32902 8.88968 7.25 8.69891 7.25 8.5C7.25 8.30109 7.32902 8.11032 7.46967 7.96967C7.61032 7.82902 7.80109 7.75 8 7.75C8.19891 7.75 8.38968 7.82902 8.53033 7.96967C8.67098 8.11032 8.75 8.30109 8.75 8.5C8.75 8.69891 8.67098 8.88968 8.53033 9.03033C8.38968 9.17098 8.19891 9.25 8 9.25ZM9.25 6.5C9.05109 6.5 8.86032 6.42098 8.71967 6.28033C8.57902 6.13968 8.5 5.94891 8.5 5.75C8.5 5.55109 8.57902 5.36032 8.71967 5.21967C8.86032 5.07902 9.05109 5 9.25 5C9.44891 5 9.63968 5.07902 9.78033 5.21967C9.92098 5.36032 10 5.55109 10 5.75C10 5.94891 9.92098 6.13968 9.78033 6.28033C9.63968 6.42098 9.44891 6.5 9.25 6.5ZM10.5 4C10.4015 4 10.304 3.9806 10.213 3.94291C10.122 3.90522 10.0393 3.84997 9.96967 3.78033C9.90003 3.71069 9.84478 3.62801 9.80709 3.53701C9.7694 3.44602 9.75 3.34849 9.75 3.25C9.75 3.15151 9.7694 3.05398 9.80709 2.96299C9.84478 2.87199 9.90003 2.78931 9.96967 2.71967C10.0393 2.65003 10.122 2.59478 10.213 2.55709C10.304 2.5194 10.4015 2.5 10.5 2.5C10.6989 2.5 10.8897 2.57902 11.0303 2.71967C11.171 2.86032 11.25 3.05109 11.25 3.25C11.25 3.44891 11.171 3.63968 11.0303 3.78033C10.8897 3.92098 10.6989 4 10.5 4Z" fill="#1D234E"/>
</svg>
