<svg width="13" height="13" viewBox="0 0 13 13" fill="none" xmlns="http://www.w3.org/2000/svg">
<path fill-rule="evenodd" clip-rule="evenodd" d="M0 5.81332V1.38985C0 1.2432 0.0693515 1.10256 0.192798 0.998865C0.316245 0.895169 0.483674 0.836914 0.658254 0.836914H12.068C12.2426 0.836914 12.41 0.895169 12.5335 0.998865C12.6569 1.10256 12.7263 1.2432 12.7263 1.38985V12.0799C12.7263 12.2265 12.6569 12.3672 12.5335 12.4709C12.41 12.5746 12.2426 12.6328 12.068 12.6328C11.8934 12.6328 11.726 12.5746 11.6025 12.4709C11.4791 12.3672 11.4097 12.2265 11.4097 12.0799V10.7897H1.31651V12.0799C1.31651 12.2265 1.24716 12.3672 1.12371 12.4709C1.00026 12.5746 0.832834 12.6328 0.658254 12.6328C0.483674 12.6328 0.316245 12.5746 0.192798 12.4709C0.0693515 12.3672 0 12.2265 0 12.0799V5.81332ZM11.4097 6.36625H1.31651V9.68385H11.4097V6.36625ZM11.4097 5.26038V1.94278H1.31651V5.26038H11.4097ZM5.04662 3.63844C5.04662 3.4918 5.11597 3.35116 5.23942 3.24746C5.36286 3.14377 5.53029 3.08551 5.70487 3.08551H7.02138C7.19596 3.08551 7.36339 3.14377 7.48684 3.24746C7.61028 3.35116 7.67963 3.4918 7.67963 3.63844C7.67963 3.78509 7.61028 3.92573 7.48684 4.02943C7.36339 4.13312 7.19596 4.19138 7.02138 4.19138H5.70487C5.53029 4.19138 5.36286 4.13312 5.23942 4.02943C5.11597 3.92573 5.04662 3.78509 5.04662 3.63844ZM5.70487 7.65643C5.53029 7.65643 5.36286 7.71468 5.23942 7.81838C5.11597 7.92208 5.04662 8.06272 5.04662 8.20936C5.04662 8.35601 5.11597 8.49665 5.23942 8.60035C5.36286 8.70404 5.53029 8.7623 5.70487 8.7623H7.02138C7.19596 8.7623 7.36339 8.70404 7.48684 8.60035C7.61028 8.49665 7.67963 8.35601 7.67963 8.20936C7.67963 8.06272 7.61028 7.92208 7.48684 7.81838C7.36339 7.71468 7.19596 7.65643 7.02138 7.65643H5.70487Z" fill="#191C1F"/>
</svg>
