<svg width="18" height="16" viewBox="0 0 18 16" fill="none" xmlns="http://www.w3.org/2000/svg">
<path fill-rule="evenodd" clip-rule="evenodd" d="M6.78684 0.841337C6.94479 0.858458 7.08999 0.9231 7.19554 1.02328C7.30108 1.12346 7.35981 1.25239 7.36084 1.38616L7.35557 1.46062L7.2678 2.03199C7.24842 2.1724 7.16576 2.30125 7.03679 2.39206C6.90782 2.48286 6.74235 2.52873 6.57438 2.52024C6.4064 2.51174 6.24867 2.44953 6.13361 2.34638C6.01854 2.24324 5.95487 2.10699 5.95568 1.96564L5.96183 1.89044L6.0496 1.31907C6.06996 1.18652 6.14678 1.06465 6.26586 0.976007C6.38494 0.887365 6.53821 0.837954 6.69732 0.836914L6.78684 0.841337ZM10.567 2.52447C10.4429 2.42151 10.2752 2.36414 10.1007 2.36497C9.92628 2.3658 9.75937 2.42476 9.63664 2.52889L9.26626 2.84369L9.20307 2.90562C9.10596 3.01827 9.06295 3.15752 9.08263 3.29562C9.1023 3.43372 9.1832 3.56051 9.30921 3.65074C9.43522 3.74096 9.59708 3.78798 9.76252 3.78242C9.92796 3.77686 10.0848 3.71914 10.2019 3.62075L10.5722 3.30668L10.6354 3.24402C10.7285 3.13708 10.7728 3.00562 10.7603 2.87356C10.7477 2.74151 10.6791 2.61762 10.567 2.52447ZM3.81943 3.77778C5.59672 2.65496 8.38771 3.15481 9.15568 4.69713C9.18904 4.76413 9.20638 4.83599 9.20668 4.90861C9.20699 4.98123 9.19026 5.05319 9.15746 5.12039C9.12465 5.18758 9.07642 5.24869 9.0155 5.30022C8.95458 5.35176 8.88217 5.39271 8.80242 5.42073C8.64134 5.47734 8.46008 5.47788 8.29853 5.42223C8.13698 5.36658 8.00837 5.2593 7.94098 5.12399C7.5197 4.27616 5.72925 3.95546 4.61109 4.66174C3.64565 5.27144 3.52014 6.29842 4.04236 6.9671L4.11433 7.05189C4.22036 7.16842 4.26693 7.31557 4.2438 7.46095C4.22068 7.60633 4.12975 7.73804 3.99101 7.8271C3.85228 7.91616 3.67711 7.95529 3.50404 7.93586C3.33097 7.91644 3.17417 7.84005 3.06814 7.72352C2.04127 6.59553 2.19661 4.80329 3.81943 3.77778ZM16.0235 7.25463C15.9568 6.90901 15.7458 6.5946 15.4284 6.36767C15.111 6.14074 14.7078 6.0161 14.2909 6.01606H6.9062C6.48858 6.01607 6.08464 6.14114 5.76694 6.36883C5.44923 6.59652 5.23858 6.91189 5.1728 7.25832L3.91422 13.8935C3.87423 14.1041 3.88911 14.3195 3.95783 14.5248C4.02655 14.7301 4.14747 14.9205 4.31225 15.0827C4.47704 15.245 4.68177 15.3753 4.91231 15.4646C5.14285 15.554 5.39373 15.6002 5.64762 15.6002H15.5706C15.8248 15.6002 16.0761 15.5538 16.3069 15.4642C16.5376 15.3746 16.7425 15.2439 16.9073 15.0813C17.072 14.9186 17.1928 14.7278 17.2611 14.5221C17.3295 14.3164 17.3438 14.1007 17.3031 13.8898L16.0235 7.25463ZM11.27 7.12193H14.2909L14.3699 7.12782C14.459 7.14161 14.5408 7.1782 14.6041 7.23258C14.6674 7.28696 14.7092 7.35647 14.7236 7.43157L15.1976 9.88659H11.27V7.12193ZM9.95348 7.12193H6.9062C6.81529 7.12187 6.72661 7.14553 6.6524 7.18964C6.57819 7.23375 6.52212 7.29613 6.49194 7.36817L6.47263 7.43231L6.00747 9.88733H9.95348V7.12193ZM9.95348 10.9925H5.7977L5.21405 14.0675C5.19589 14.1627 5.22284 14.2601 5.28912 14.3387C5.3554 14.4174 5.45574 14.4712 5.56863 14.4885L5.64762 14.4944H9.95348V10.9925ZM11.27 14.4944H15.5706C15.6855 14.4946 15.796 14.4568 15.8781 14.3892C15.9602 14.3217 16.0073 14.2297 16.0094 14.1331L16.0033 14.0668L15.4108 10.9925H11.27V14.4944ZM2.23435 1.55868C2.30696 1.51927 2.38811 1.49226 2.47314 1.4792C2.55818 1.46613 2.64545 1.46727 2.72996 1.48253C2.81448 1.4978 2.89459 1.5269 2.96571 1.56817C3.03684 1.60945 3.09759 1.66209 3.1445 1.72308L3.48855 2.17059L3.53594 2.24284C3.6054 2.37014 3.61477 2.51483 3.56216 2.64771C3.50955 2.78058 3.39889 2.89175 3.2525 2.95875C3.10612 3.02575 2.93492 3.0436 2.77348 3.0087C2.61204 2.9738 2.47237 2.88874 2.38268 2.77071L2.03863 2.3232L1.99124 2.25095C1.92608 2.13015 1.91479 1.99369 1.95942 1.86648C2.00405 1.73926 2.10162 1.6305 2.23435 1.55868ZM0.658054 5.26628C0.491275 5.26624 0.330734 5.21302 0.208868 5.11738C0.0870028 5.02174 0.0128995 4.8908 0.00153187 4.75104C-0.00983573 4.61127 0.0423799 4.47309 0.147628 4.36441C0.252876 4.25574 0.403309 4.18467 0.568531 4.16557L0.658054 4.16041H1.27857C1.44535 4.16046 1.60589 4.21368 1.72775 4.30932C1.84962 4.40496 1.92372 4.53589 1.93509 4.67566C1.94646 4.81543 1.89424 4.95361 1.78899 5.06228C1.68375 5.17096 1.53331 5.24202 1.36809 5.26112L1.27857 5.26628H0.658054ZM0.359645 7.95428C0.392633 8.02144 0.441056 8.08248 0.502146 8.13392C0.563236 8.18535 0.635795 8.22617 0.715675 8.25404C0.795555 8.28191 0.881189 8.29627 0.967684 8.29633C1.05418 8.29638 1.13984 8.28211 1.21976 8.25433L1.74637 8.0715L1.82536 8.03832C1.96773 7.96702 2.07284 7.85323 2.11969 7.71968C2.16654 7.58612 2.15168 7.44264 2.07809 7.31788C2.0045 7.19313 1.87758 7.09629 1.7227 7.0467C1.56781 6.99712 1.39636 6.99845 1.24258 7.05041L0.716858 7.23251L0.63699 7.26569C0.499504 7.33293 0.395662 7.43973 0.344675 7.56632C0.293688 7.69291 0.299006 7.83072 0.359645 7.95428Z" fill="#191C1F"/>
</svg>
