<svg width="19" height="16" viewBox="0 0 19 16" fill="none" xmlns="http://www.w3.org/2000/svg">
<path d="M10.2919 0.395336L10.3969 0.484979L18.2393 7.50453L17.3981 8.28399L16.3183 7.31759L16.3189 14.7269C16.3189 15.303 15.8293 15.7753 15.2084 15.8168L15.119 15.8201H3.12027C2.48794 15.8201 1.96959 15.374 1.9234 14.8083L1.9204 14.7269L1.9198 7.31813L0.841111 8.28399L0 7.50453L7.83397 0.492086C8.5017 -0.128862 9.57858 -0.163298 10.2919 0.395336ZM8.74047 1.21743L8.68288 1.26499L3.11967 6.24405L3.12027 14.7269L6.11935 14.7263L6.11995 9.26078C6.11995 8.68465 6.6095 8.21238 7.23043 8.1703L7.31982 8.16756H10.9194C11.5518 8.16756 12.0701 8.6136 12.1163 9.17933L12.1193 9.26078L12.1187 14.7263L15.119 14.7269L15.1184 6.2435L9.53959 1.24968C9.32121 1.05455 8.98044 1.04252 8.74047 1.21743ZM10.9194 9.26078H7.31982L7.31922 14.7263H10.9188L10.9194 9.26078Z" fill="#191C1F"/>
</svg>
