<svg width="23" height="23" viewBox="0 0 23 23" fill="none" xmlns="http://www.w3.org/2000/svg">
<path d="M11.1037 0.251953C17.1925 0.251953 22.1292 5.18864 22.1292 11.2775C22.1292 17.3664 17.1925 22.3031 11.1037 22.3031C5.01482 22.3031 0.078125 17.3664 0.078125 11.2775C0.078125 5.18864 5.01482 0.251953 11.1037 0.251953ZM11.1037 2.08955C6.03744 2.08955 1.91572 6.21126 1.91572 11.2775C1.91572 16.3437 6.03744 20.4655 11.1037 20.4655C16.1699 20.4655 20.2916 16.3437 20.2916 11.2775C20.2916 6.21126 16.1699 2.08955 11.1037 2.08955Z" fill="#999999"/>
<path d="M12.023 14.9521V9.66904C12.023 9.60812 11.9988 9.5497 11.9557 9.50662C11.9126 9.46354 11.8542 9.43934 11.7933 9.43934H9.4963C9.43538 9.43934 9.37696 9.46354 9.33388 9.50662C9.2908 9.5497 9.2666 9.60812 9.2666 9.66904V11.2769H10.1854V14.9521H9.2666V16.56C9.2666 16.6868 9.36951 16.7897 9.4963 16.7897H12.7121C12.773 16.7897 12.8314 16.7655 12.8745 16.7224C12.9176 16.6794 12.9418 16.6209 12.9418 16.56V14.9521H12.023ZM11.7933 7.60175H10.4151C10.3542 7.60175 10.2958 7.57755 10.2527 7.53448C10.2096 7.4914 10.1854 7.43297 10.1854 7.37205V5.99386C10.1854 5.93294 10.2096 5.87451 10.2527 5.83144C10.2958 5.78836 10.3542 5.76416 10.4151 5.76416H11.7933C11.8542 5.76416 11.9126 5.78836 11.9557 5.83144C11.9988 5.87451 12.023 5.93294 12.023 5.99386V7.37205C12.023 7.43297 11.9988 7.4914 11.9557 7.53448C11.9126 7.57755 11.8542 7.60175 11.7933 7.60175Z" fill="#999999"/>
</svg>
