<svg width="17" height="16" viewBox="0 0 17 16" fill="none" xmlns="http://www.w3.org/2000/svg">
<path fill-rule="evenodd" clip-rule="evenodd" d="M6.58613 0.853135C6.15336 0.799711 5.71217 0.879237 5.3436 1.07711C4.97502 1.27498 4.70381 1.5779 4.57977 1.93025C4.45038 2.29812 4.47263 2.69191 4.64291 3.04783C4.8132 3.40375 5.12154 3.70097 5.518 3.89132L9.23231 5.67693L9.27795 5.70642C9.29847 5.72351 9.31477 5.74383 9.32592 5.76622C9.33706 5.78862 9.34283 5.81264 9.3429 5.83691V7.65938L2.43561 6.31317L2.30221 6.29179C1.99384 6.25555 1.67963 6.29889 1.40126 6.41607C1.12288 6.53325 0.893476 6.71874 0.743461 6.94794L0.190527 7.79135L0.131723 7.89087C0.0454901 8.05432 0.000636208 8.23103 6.71899e-06 8.40981C-0.00062277 8.58858 0.0429859 8.76552 0.128066 8.92939C0.213147 9.09326 0.337842 9.24049 0.494243 9.36173C0.650643 9.48298 0.835335 9.5756 1.0366 9.63372L0.96639 9.81656L0.930405 9.92493C0.847633 10.2272 0.897268 10.5444 1.07022 10.8185C1.24317 11.0925 1.52786 11.305 1.87215 11.4171L3.32557 11.8897L3.45108 11.9258C3.77997 12.0061 4.13136 11.9917 4.4494 11.885C4.76745 11.7782 5.03391 11.5853 5.20643 11.3368L5.55749 10.8325L9.3429 11.8351V12.3048C8.94912 12.3747 8.59594 12.5563 8.34252 12.8189C8.0891 13.0816 7.95084 13.4095 7.95091 13.7475V14.4848C7.95091 14.6803 8.04338 14.8678 8.20797 15.0061C8.37257 15.1444 8.59581 15.222 8.82858 15.222H15.85C16.0827 15.222 16.306 15.1444 16.4706 15.0061C16.6352 14.8678 16.7276 14.6803 16.7276 14.4848V13.7475C16.7278 13.4241 16.6013 13.1096 16.3677 12.8525C16.1341 12.5954 15.8063 12.4099 15.4348 12.3247V4.13977L15.4304 4.01149C15.3973 3.57376 15.1961 3.15685 14.857 2.82334C14.5178 2.48982 14.0591 2.25768 13.5496 2.16174L6.71953 0.873778L6.58613 0.853135ZM14.1183 12.2731V4.13977C14.1183 3.94622 14.0457 3.75759 13.9108 3.60065C13.776 3.4437 13.5857 3.32641 13.367 3.2654L13.2617 3.24107L6.43078 1.9531C6.3072 1.93004 6.1778 1.94719 6.06868 2.00109C5.95955 2.055 5.87881 2.14165 5.84274 2.24358C5.80189 2.3592 5.80366 2.4825 5.84784 2.59725C5.89202 2.712 5.97653 2.81283 6.09024 2.88646L6.17186 2.93143L9.88617 4.71704C10.325 4.92715 10.6085 5.30388 10.6533 5.7219L10.6594 5.83691V12.2731H14.1183ZM2.13808 7.39029L9.3429 8.79474V10.6754L1.47017 8.58905L1.43068 8.5743C1.37975 8.5508 1.342 8.51128 1.32571 8.46443C1.30942 8.41758 1.31592 8.36721 1.34379 8.32437L1.89672 7.48097L1.93095 7.44189C1.95733 7.41889 1.99037 7.40204 2.02683 7.39299C2.0633 7.38394 2.10106 7.38301 2.13808 7.39029ZM2.21883 10.1572L2.29167 9.96622L4.27083 10.4911L4.06984 10.7794L4.03824 10.8148C4.00831 10.8409 3.96986 10.8591 3.9277 10.8669C3.88555 10.8748 3.84157 10.8721 3.80127 10.859L2.34785 10.3857L2.29782 10.3636C2.26037 10.3406 2.23255 10.3083 2.21836 10.2712C2.20417 10.2341 2.20433 10.1942 2.21883 10.1572ZM14.9714 13.3789H9.70537C9.60281 13.3791 9.50356 13.4094 9.42483 13.4646C9.34611 13.5198 9.2929 13.5965 9.27444 13.6812L9.26742 13.7475L9.26654 14.1162H15.4102V13.7475C15.4103 13.6613 15.3743 13.5777 15.3085 13.5114C15.2428 13.4452 15.1514 13.4004 15.0504 13.3848L14.9714 13.3789Z" fill="#191C1F"/>
</svg>
