<svg width="17" height="17" viewBox="0 0 17 17" fill="none" xmlns="http://www.w3.org/2000/svg">
<path d="M7.4574 15.7994C7.4574 16.2508 7.12596 16.5517 6.6288 16.5517H2.4858C1.07718 16.5517 0 15.5737 0 14.2947V2.25705C0 0.978056 1.07718 0 2.4858 0H6.6288C7.12596 0 7.4574 0.30094 7.4574 0.752351C7.4574 1.20376 7.12596 1.5047 6.6288 1.5047H2.4858C1.98864 1.5047 1.6572 1.80564 1.6572 2.25705V14.2947C1.6572 14.7461 1.98864 15.047 2.4858 15.047H6.6288C7.12596 15.047 7.4574 15.348 7.4574 15.7994Z" fill="#1D234E"/>
<path d="M16.4912 8.57637C16.574 8.4259 16.574 8.20019 16.4912 7.97449C16.4083 7.89925 16.4083 7.82402 16.3255 7.74878L13.0111 4.73938C12.6796 4.43844 12.1825 4.43844 11.851 4.73938C11.5196 5.04032 11.5196 5.49173 11.851 5.79267L13.7568 7.52308H5.80223C5.30507 7.52308 4.97363 7.82402 4.97363 8.27543C4.97363 8.72684 5.30507 9.02778 5.80223 9.02778H13.7568L11.851 10.7582C11.5196 11.0591 11.5196 11.5105 11.851 11.8115C12.0167 11.9619 12.2653 12.0372 12.431 12.0372C12.5968 12.0372 12.8453 11.9619 13.0111 11.8115L16.3255 8.80207C16.4083 8.72684 16.4912 8.6516 16.4912 8.57637Z" fill="#1D234E"/>
</svg>
