<svg width="23" height="23" viewBox="0 0 23 23" fill="none" xmlns="http://www.w3.org/2000/svg">
<path d="M3.23533 5.25154L11.4999 13.506L19.7761 5.25154H3.23533ZM21.1101 6.58042L11.4999 16.1766L1.88982 6.57022V17.3521C1.8962 17.6792 2.15433 17.9399 2.4712 17.9399H20.53C20.8469 17.9399 21.1037 17.6792 21.1114 17.3521V6.58042H21.1101ZM20.5288 19.8054H2.4712C1.10657 19.8054 0 18.6605 0 17.2499V5.74988C0 4.33923 1.10657 3.19434 2.4712 3.19434H20.53C21.8947 3.19434 23 4.33923 23 5.74988V17.2499C23 18.6605 21.8947 19.8054 20.5288 19.8054Z" fill="white"/>
</svg>
