<svg width="17" height="16" viewBox="0 0 17 16" fill="none" xmlns="http://www.w3.org/2000/svg">
<path fill-rule="evenodd" clip-rule="evenodd" d="M16.5632 4.02044V3.70877L16.2394 3.55648L9.00174 0.157898C8.78217 0.0544894 8.53469 0.000124228 8.28297 2.12651e-07C8.03125 -0.000123803 7.7837 0.0539975 7.56399 0.157189L0.32381 3.55719L0 3.70806V11.0103C0 11.4452 0.271528 11.844 0.710863 12.0678L7.51592 15.5344C7.74665 15.6519 8.01133 15.7141 8.28118 15.7141C8.55102 15.7141 8.8157 15.6519 9.04643 15.5344L15.8523 12.0678C16.0692 11.9574 16.2486 11.8019 16.3731 11.6163C16.4976 11.4306 16.5631 11.2212 16.5632 11.0081V4.02044ZM8.38447 1.08511L14.6347 4.02044L8.38447 6.95577C8.35354 6.97059 8.31858 6.97844 8.28297 6.97857C8.24737 6.97869 8.21233 6.97108 8.18125 6.95648L1.92852 4.02044L8.18125 1.0844C8.2124 1.0699 8.24748 1.06242 8.28308 1.06266C8.31869 1.06291 8.35362 1.07018 8.38447 1.08511ZM9.00174 7.88298L15.2983 4.9264V11.0089C15.2984 11.0393 15.2891 11.0692 15.2714 11.0958C15.2537 11.1223 15.2281 11.1446 15.1971 11.1604L8.39122 14.6263C8.35819 14.6432 8.32027 14.6521 8.2816 14.6521C8.24293 14.6521 8.205 14.6432 8.17197 14.6263L5.48115 13.2557V9.83727C5.48115 9.52631 5.2872 9.23802 4.9693 9.07794L3.70441 8.44044C3.54446 8.35984 3.36191 8.31634 3.1754 8.31438C2.98889 8.31242 2.8051 8.35207 2.64279 8.42927C2.48048 8.50648 2.34547 8.61848 2.25154 8.75385C2.15761 8.88921 2.10813 9.04309 2.10813 9.19977V11.5373L1.36607 11.1604C1.3352 11.1451 1.30964 11.1232 1.29189 11.097C1.27415 11.0708 1.26484 11.0411 1.26488 11.011V4.9264L7.56399 7.88369C7.78363 7.98699 8.03114 8.04123 8.28286 8.04123C8.53458 8.04123 8.7821 7.98699 9.00174 7.88369V7.88298ZM3.37302 12.1833L4.21627 12.6125V9.93786L3.37302 9.51286V12.1819V12.1833Z" fill="#1D234E"/>
</svg>
