<svg width="28" height="30" viewBox="0 0 28 30" fill="none" xmlns="http://www.w3.org/2000/svg">
<path d="M23 2.34776e-06C24.2888 -0.00124582 25.5284 0.495233 26.46 1.38585C27.3916 2.27646 27.9433 3.49242 28 4.78V19C28.0012 20.2888 27.5048 21.5284 26.6142 22.46C25.7235 23.3916 24.5076 23.9433 23.22 24H18.16L14 29.08L9.84 24H5C3.75019 23.9999 2.54576 23.5316 1.62399 22.6876C0.702232 21.8436 0.129985 20.685 0.0200023 19.44L2.34776e-06 19.22V19V5C-0.00124582 3.71117 0.495233 2.47164 1.38585 1.54003C2.27646 0.608425 3.49242 0.0567103 4.78 2.34776e-06H23ZM23 2H5C4.23458 1.99862 3.49758 2.28987 2.93987 2.81411C2.38216 3.33836 2.04593 4.05596 2 4.82V19C1.99862 19.7654 2.28987 20.5024 2.81411 21.0601C3.33836 21.6178 4.05596 21.9541 4.82 22H10.8L14 25.92L17.2 22H23C23.7654 22.0014 24.5024 21.7101 25.0601 21.1859C25.6178 20.6616 25.9541 19.944 26 19.18V5C26.0014 4.23458 25.7101 3.49758 25.1859 2.93987C24.6616 2.38216 23.944 2.04593 23.18 2H23ZM20 6.59L21.41 8L12 17.41L6.59 12L8 10.59L12 14.59L20 6.59Z" fill="#1D234E"/>
</svg>
