<svg width="18" height="19" viewBox="0 0 18 19" fill="none" xmlns="http://www.w3.org/2000/svg">
<path d="M3.2168 13.7959L5.51953 12.1787H11.5664C11.6133 12.1787 11.6572 12.1582 11.6982 12.1172C11.7393 12.0762 11.7598 12.0264 11.7598 11.9678V5.04199H13.2891C13.3477 5.04199 13.3975 5.0625 13.4385 5.10352C13.4795 5.14453 13.5 5.18848 13.5 5.23535V13.6025C13.5 13.6494 13.4795 13.6934 13.4385 13.7344C13.3975 13.7754 13.3477 13.7959 13.2891 13.7959H11.7773V15.9404C11.7773 15.9521 11.7715 15.9697 11.7598 15.9932C11.748 16.0166 11.7363 16.0342 11.7246 16.0459C11.7012 16.0928 11.6602 16.1221 11.6016 16.1338C11.543 16.1455 11.4902 16.1338 11.4434 16.0986L8.19141 13.7959H3.2168ZM0.210938 2.07129H10.4238C10.4824 2.07129 10.5322 2.0918 10.5732 2.13281C10.6143 2.17383 10.6348 2.22363 10.6348 2.28223V10.6318C10.6348 10.6904 10.6143 10.7402 10.5732 10.7812C10.5322 10.8223 10.4824 10.8428 10.4238 10.8428H5.30859L2.05664 13.1279C2.00977 13.1631 1.95703 13.1777 1.89844 13.1719C1.83984 13.166 1.79883 13.1396 1.77539 13.0928C1.76367 13.0693 1.75195 13.0488 1.74023 13.0312C1.72852 13.0137 1.72266 12.9932 1.72266 12.9697V10.8428H0.210938C0.152344 10.8428 0.102539 10.8223 0.0615234 10.7812C0.0205078 10.7402 0 10.6904 0 10.6318V2.28223C0 2.22363 0.0205078 2.17383 0.0615234 2.13281C0.102539 2.0918 0.152344 2.07129 0.210938 2.07129ZM1.63477 4.40918V5.30566H9V4.40918H1.63477ZM1.63477 6.6416V7.53809H7.36523V6.6416H1.63477Z" fill="#191C1F"/>
</svg>
