<svg width="18" height="18" viewBox="0 0 18 18" fill="none" xmlns="http://www.w3.org/2000/svg">
<path d="M6.70581 7.21191C6.59398 7.21191 6.48674 7.24923 6.40767 7.31565C6.3286 7.38207 6.28418 7.47215 6.28418 7.56608C6.28418 7.66001 6.3286 7.7501 6.40767 7.81651C6.48674 7.88293 6.59398 7.92025 6.70581 7.92025H14.2951C14.4069 7.92025 14.5142 7.88293 14.5932 7.81651C14.6723 7.7501 14.7167 7.66001 14.7167 7.56608C14.7167 7.47215 14.6723 7.38207 14.5932 7.31565C14.5142 7.24923 14.4069 7.21191 14.2951 7.21191H6.70581Z" fill="#191C1F"/>
<path fill-rule="evenodd" clip-rule="evenodd" d="M3.12109 2.96191C3.12109 2.82102 3.18773 2.68589 3.30633 2.58626C3.42494 2.48663 3.5858 2.43066 3.75353 2.43066H17.2456C17.4133 2.43066 17.5742 2.48663 17.6928 2.58626C17.8114 2.68589 17.878 2.82102 17.878 2.96191V9.33691C17.878 9.47781 17.8114 9.61294 17.6928 9.71256C17.5742 9.81219 17.4133 9.86816 17.2456 9.86816H3.75353C3.5858 9.86816 3.42494 9.81219 3.30633 9.71256C3.18773 9.61294 3.12109 9.47781 3.12109 9.33691V2.96191ZM16.6132 3.49316H4.38597V8.80566H16.6132V3.49316Z" fill="#191C1F"/>
<path d="M15.4874 11.6595C15.5672 11.679 15.6417 11.7114 15.7065 11.7551C15.7714 11.7987 15.8254 11.8527 15.8654 11.9139C15.9054 11.975 15.9307 12.0423 15.9398 12.1116C15.9488 12.181 15.9416 12.2512 15.9183 12.3183C15.8525 12.5095 15.8391 12.8063 15.9841 13.0549C16.1081 13.2674 16.3998 13.5331 17.1731 13.6251C17.3369 13.647 17.4838 13.7221 17.5824 13.8341C17.6809 13.9462 17.7231 14.0862 17.6999 14.2242C17.6767 14.3621 17.5899 14.4868 17.4582 14.5715C17.3266 14.6562 17.1606 14.6941 16.996 14.677C15.8812 14.5446 15.1881 14.1033 14.8482 13.5224C14.5303 12.9777 14.5742 12.3962 14.704 12.0208C14.751 11.8855 14.86 11.7714 15.0071 11.7037C15.1541 11.636 15.3264 11.6201 15.4874 11.6595ZM12.3741 12.1553C12.4173 12.021 12.3961 11.8779 12.3149 11.7566C12.2338 11.6353 12.0993 11.5456 11.9403 11.5067C11.7812 11.4678 11.6104 11.4829 11.4645 11.5487C11.3186 11.6145 11.2092 11.7257 11.1598 11.8585C10.8984 12.615 11.0435 13.5826 11.503 14.4773C11.9685 15.3839 12.7856 16.2785 13.9687 16.875C14.1124 16.9458 14.2836 16.9662 14.4451 16.9316C14.6066 16.897 14.7453 16.8103 14.8311 16.6902C14.9169 16.5702 14.9428 16.4266 14.9032 16.2906C14.8636 16.1546 14.7617 16.0373 14.6197 15.9641C13.6947 15.498 13.0403 14.7889 12.6642 14.0565C12.2822 13.3128 12.219 12.6051 12.3741 12.1553ZM8.70006 11.4966C8.62026 11.5161 8.5458 11.5485 8.48094 11.5922C8.41609 11.6358 8.36211 11.6898 8.32209 11.751C8.28207 11.8121 8.2568 11.8793 8.24772 11.9487C8.23864 12.0181 8.24592 12.0883 8.26916 12.1553C8.42432 12.6051 8.36108 13.312 7.97908 14.0565C7.60299 14.7889 6.94863 15.498 6.02273 15.9641C5.95065 15.9996 5.88767 16.0468 5.83743 16.1029C5.78719 16.159 5.75069 16.2229 5.73004 16.2909C5.70939 16.359 5.70499 16.4298 5.71711 16.4992C5.72922 16.5687 5.75761 16.6354 5.80063 16.6956C5.84365 16.7558 5.90044 16.8083 5.96773 16.8499C6.03502 16.8916 6.11147 16.9216 6.19265 16.9383C6.27384 16.9549 6.35816 16.9579 6.44073 16.9471C6.5233 16.9362 6.60249 16.9117 6.67372 16.875C7.85765 16.2785 8.67477 15.3839 9.14024 14.4773C9.59897 13.5826 9.74486 12.6143 9.48345 11.8585C9.43665 11.7233 9.32785 11.6092 9.18095 11.5414C9.03406 11.4735 8.86109 11.4574 8.70006 11.4966ZM3.75522 13.6188C3.58749 13.6184 3.42645 13.674 3.30753 13.7734C3.1886 13.8727 3.12154 14.0077 3.1211 14.1486C3.12065 14.2895 3.18685 14.4248 3.30514 14.5247C3.42343 14.6246 3.58412 14.6809 3.75185 14.6813C4.21733 14.6813 4.89446 14.5566 5.42993 14.1486C5.99912 13.7144 6.31281 13.0323 6.15512 12.0951C6.12906 11.9576 6.03972 11.8341 5.90633 11.7513C5.77294 11.6685 5.60619 11.6331 5.44199 11.6526C5.27778 11.6721 5.12927 11.745 5.02844 11.8556C4.9276 11.9662 4.88252 12.1056 4.90289 12.2439C5.01251 12.8934 4.78821 13.203 4.57993 13.3616C4.33538 13.5479 3.99302 13.6188 3.75522 13.6188Z" fill="#191C1F"/>
</svg>
