<svg width="21" height="21" viewBox="0 0 21 21" fill="none" xmlns="http://www.w3.org/2000/svg">
<path d="M19.7094 15.4609C20.126 15.8906 20.3344 16.3919 20.3344 16.9648C20.3474 17.5378 20.1781 18.013 19.8266 18.3906L18.8891 19.2305C18.7068 19.3997 18.5049 19.5495 18.2836 19.6797C18.0622 19.8099 17.8344 19.9336 17.6 20.0508C17.1182 20.2852 16.643 20.4023 16.1742 20.4023H15.7055C15.0674 20.4935 13.8305 20.2396 11.9945 19.6406C10.1716 19.0286 8.02969 17.5573 5.56875 15.2266C3.5375 13.2474 2.11823 11.4245 1.31094 9.75781C0.503646 8.09115 0.197657 6.41797 0.392969 4.73828C0.458073 4.55599 0.516667 4.35417 0.56875 4.13281L0.744532 3.44922C0.809636 3.20182 0.900782 2.96745 1.01797 2.74609C1.13516 2.52474 1.27839 2.32292 1.44766 2.14062V2.02344L2.2875 1.20312C2.71719 0.786458 3.225 0.578125 3.81094 0.578125C4.39688 0.578125 4.90469 0.786458 5.33438 1.20312L8.16641 4.03516C8.58307 4.46484 8.79141 4.97266 8.79141 5.55859C8.79141 6.14453 8.58307 6.65885 8.16641 7.10156L7.11172 8.15625C7.34609 8.57292 7.65208 9.0612 8.02969 9.62109C8.40729 10.168 8.88906 10.7409 9.475 11.3398C10.0609 11.9258 10.6273 12.4076 11.1742 12.7852C11.7341 13.1628 12.2224 13.4622 12.6391 13.6836L13.7133 12.6289C13.8826 12.4596 14.1039 12.3424 14.3773 12.2773C14.6508 12.1992 14.9372 12.1602 15.2367 12.1602C15.5362 12.1602 15.8161 12.1992 16.0766 12.2773C16.35 12.3424 16.5779 12.4596 16.7602 12.6289L18.2445 14.0352C19.1039 14.8685 19.5922 15.3438 19.7094 15.4609ZM15.5883 19.3477C15.6534 19.3477 15.7055 19.3411 15.7445 19.3281C15.7966 19.3151 15.8227 19.2826 15.8227 19.2305C16.0049 19.2305 16.1807 19.2044 16.35 19.1523C16.5323 19.1003 16.7081 19.0482 16.8773 18.9961C17.0596 18.931 17.2354 18.8464 17.4047 18.7422C17.587 18.638 17.7693 18.5208 17.9516 18.3906L18.6547 17.6875C18.824 17.5052 18.9086 17.2904 18.9086 17.043C18.9086 16.7956 18.824 16.5807 18.6547 16.3984L15.8227 13.5664C15.7055 13.5143 15.5883 13.4818 15.4711 13.4688C15.3539 13.4557 15.2367 13.4492 15.1195 13.4492C14.9893 13.4492 14.8526 13.4557 14.7094 13.4688C14.5792 13.4818 14.4815 13.5143 14.4164 13.5664L12.6391 15.2266L12.0531 14.875C11.5844 14.6406 11.0375 14.3216 10.4125 13.918C9.7875 13.5143 9.11693 12.9674 8.40078 12.2773C7.76276 11.5612 7.22891 10.8971 6.79922 10.2852C6.36953 9.66016 6.04401 9.10677 5.82266 8.625L5.45156 8.03906L7.22891 6.26172C7.39818 6.02734 7.48281 5.77995 7.48281 5.51953C7.48281 5.25911 7.39818 5.03776 7.22891 4.85547L4.39688 2.02344C4.27969 1.97135 4.1625 1.91927 4.04531 1.86719C3.92813 1.8151 3.81094 1.78906 3.69375 1.78906C3.57656 1.78906 3.45938 1.80208 3.34219 1.82812C3.225 1.85417 3.10781 1.91927 2.99063 2.02344L2.2875 2.86328C2.15729 3.03255 2.0401 3.20833 1.93594 3.39062C1.83177 3.5599 1.74714 3.73568 1.68203 3.91797C1.62995 4.08724 1.57786 4.26302 1.52578 4.44531C1.48672 4.6276 1.46068 4.80339 1.44766 4.97266C1.26536 6.41797 1.55833 7.90234 2.32656 9.42578C3.09479 10.9492 4.41641 12.6484 6.29141 14.5234C8.62214 16.6719 10.6143 18.0326 12.268 18.6055C13.9216 19.1784 15.0284 19.4258 15.5883 19.3477Z" fill="#191C1F"/>
</svg>
