<svg width="16" height="16" viewBox="0 0 16 16" fill="none" xmlns="http://www.w3.org/2000/svg">
<path d="M0 2.68066L2.16211 0.518555C2.24414 0.436523 2.3291 0.380859 2.41699 0.351562C2.50488 0.322266 2.60156 0.313477 2.70703 0.325195C2.80078 0.336914 2.88867 0.369141 2.9707 0.421875C3.05273 0.474609 3.12305 0.541992 3.18164 0.624023L5.04492 3.20801C5.10352 3.29004 5.14453 3.38086 5.16797 3.48047C5.19141 3.58008 5.19727 3.68262 5.18555 3.78809C5.17383 3.90527 5.14453 4.01074 5.09766 4.10449C5.05078 4.19824 4.99219 4.28027 4.92188 4.35059L3.33984 5.93262C3.80859 6.56543 4.29492 7.18066 4.79883 7.77832C5.30273 8.37598 5.82715 8.9502 6.37207 9.50098C6.91699 10.0518 7.48828 10.5791 8.08594 11.083C8.67188 11.5752 9.28711 12.0498 9.93164 12.5068L11.5137 10.9424C11.584 10.8604 11.666 10.7988 11.7598 10.7578C11.8535 10.7168 11.959 10.6904 12.0762 10.6787C12.1934 10.667 12.3018 10.6758 12.4014 10.7051C12.501 10.7344 12.5918 10.7783 12.6738 10.8369L15.2227 12.6475C15.3047 12.7178 15.3721 12.7939 15.4248 12.876C15.4775 12.958 15.5098 13.0518 15.5215 13.1572C15.5332 13.251 15.5244 13.3447 15.4951 13.4385C15.4658 13.5322 15.416 13.6143 15.3457 13.6846L13.1836 15.8467L13.043 15.8643C12.9492 15.8643 12.8174 15.8555 12.6475 15.8379C12.4775 15.8203 12.2695 15.7939 12.0234 15.7588C11.7891 15.7236 11.5166 15.6592 11.2061 15.5654C10.8955 15.4717 10.5469 15.3545 10.1602 15.2139C9.80859 15.0732 9.41895 14.8887 8.99121 14.6602C8.56348 14.4316 8.10352 14.1592 7.61133 13.8428C7.11914 13.5264 6.61816 13.1543 6.1084 12.7266C5.59863 12.2988 5.08008 11.8271 4.55273 11.3115C4.03711 10.7842 3.56836 10.2686 3.14648 9.76465C2.72461 9.26074 2.34375 8.75684 2.00391 8.25293C1.71094 7.7959 1.4502 7.35352 1.22168 6.92578C0.993164 6.49805 0.802734 6.09082 0.650391 5.7041C0.509766 5.36426 0.395508 5.03906 0.307617 4.72852C0.219727 4.41797 0.152344 4.11621 0.105469 3.82324C0.0703125 3.64746 0.0439453 3.47461 0.0263672 3.30469C0.00878906 3.13477 0 2.97363 0 2.82129C0 2.78613 0 2.75684 0 2.7334C0 2.70996 0 2.69238 0 2.68066Z" fill="#1D234E"/>
</svg>
