<svg width="15" height="15" viewBox="0 0 15 15" fill="none" xmlns="http://www.w3.org/2000/svg">
<path d="M7.60645 9.24832V7.37619C7.60645 7.28226 7.65087 7.19218 7.72994 7.12576C7.80901 7.05934 7.91625 7.02202 8.02807 7.02202H13.0876C13.1994 7.02202 13.3067 6.98471 13.3857 6.91829C13.4648 6.85187 13.5092 6.76179 13.5092 6.66786V3.22819C13.5092 3.13426 13.4648 3.04418 13.3857 2.97776C13.3067 2.91134 13.1994 2.87402 13.0876 2.87402H11.8227" stroke="#191C1F" stroke-width="1.0625" stroke-linecap="round"/>
<path d="M10.7907 0.719727H2.33544C1.86973 0.719727 1.49219 1.03686 1.49219 1.42806V4.31806C1.49219 4.70926 1.86973 5.02639 2.33544 5.02639H10.7907C11.2565 5.02639 11.634 4.70926 11.634 4.31806V1.42806C11.634 1.03686 11.2565 0.719727 10.7907 0.719727Z" stroke="#191C1F" stroke-width="1.0625"/>
<path d="M8.0283 9.24707H7.18505C6.71933 9.24707 6.3418 9.5642 6.3418 9.9554V13.2442C6.3418 13.6354 6.71933 13.9525 7.18505 13.9525H8.0283C8.49402 13.9525 8.87156 13.6354 8.87156 13.2442V9.9554C8.87156 9.5642 8.49402 9.24707 8.0283 9.24707Z" stroke="#191C1F" stroke-width="1.0625"/>
</svg>
