<svg width="20" height="18" viewBox="0 0 20 18" fill="none" xmlns="http://www.w3.org/2000/svg">
<path d="M17.1176 0.222656C17.426 0.222559 17.7231 0.33906 17.9493 0.548805C18.1755 0.758551 18.3141 1.04604 18.3372 1.35364L18.3403 1.44534L18.3396 7.4585L19.4688 10.8453C19.4999 10.9387 19.5234 11.0343 19.5391 11.1314L19.5574 11.2782L19.5629 11.4249V17.3402H18.3403V16.1175H1.22268V17.3402H0V11.4255C1.17433e-05 11.2778 0.01787 11.1306 0.0531867 10.9872L0.0941466 10.8453L1.22207 7.46033L1.22268 1.44534C1.22267 1.15316 1.32729 0.870627 1.5176 0.648919C1.70791 0.427211 1.97132 0.280983 2.26013 0.236717L2.35428 0.225713L2.44537 0.222656H17.1176ZM18.3396 12.4495H1.22268L1.22207 14.8942H18.3396V12.4495ZM17.4917 8.78144H2.07061L1.2557 11.2268H18.3066L17.4917 8.78144ZM17.1176 1.44534H2.44537L2.44476 7.55876H3.66805V5.11339C3.66795 4.80492 3.78445 4.50781 3.9942 4.28163C4.20394 4.05544 4.49143 3.9169 4.79903 3.89376L4.89073 3.89071H14.6722C14.9807 3.89061 15.2778 4.00711 15.504 4.21686C15.7301 4.4266 15.8687 4.71409 15.8918 5.02169L15.8949 5.11339V7.55876H17.117L17.1176 1.44534ZM9.17013 5.11339H4.89073V7.55876H9.17013V5.11339ZM14.6722 5.11339H10.3928V7.55876H14.6722V5.11339Z" fill="#191C1F"/>
</svg>
