<svg width="14" height="13" viewBox="0 0 14 13" fill="none" xmlns="http://www.w3.org/2000/svg">
<path fill-rule="evenodd" clip-rule="evenodd" d="M0 4.108C0 4.40125 0.283333 4.63925 0.63244 4.63925H0.815427V11.6418C0.815427 11.9358 1.09876 12.1731 1.44787 12.1731H12.0476C12.2153 12.1731 12.3762 12.1171 12.4948 12.0175C12.6134 11.9179 12.68 11.7827 12.68 11.6418V4.63925H12.863C13.0307 4.63925 13.1916 4.58328 13.3102 4.48365C13.4288 4.38402 13.4954 4.24889 13.4954 4.108V1.36816C13.4954 1.22727 13.4288 1.09214 13.3102 0.992514C13.1916 0.892885 13.0307 0.836914 12.863 0.836914H0.63244C0.464707 0.836914 0.303843 0.892885 0.185237 0.992514C0.0666318 1.09214 0 1.22727 0 1.36816V4.108ZM1.26488 3.57675V1.89941H12.2306V3.57675H1.26488ZM2.08031 11.1106V4.63925H11.4151V11.1106H2.08031ZM5.34201 5.78533C5.17428 5.78533 5.01342 5.8413 4.89481 5.94093C4.77621 6.04056 4.70957 6.17568 4.70957 6.31658C4.70957 6.45748 4.77621 6.5926 4.89481 6.69223C5.01342 6.79186 5.17428 6.84783 5.34201 6.84783H8.15427C8.322 6.84783 8.48286 6.79186 8.60147 6.69223C8.72007 6.5926 8.78671 6.45748 8.78671 6.31658C8.78671 6.17568 8.72007 6.04056 8.60147 5.94093C8.48286 5.8413 8.322 5.78533 8.15427 5.78533H5.34201Z" fill="#191C1F"/>
</svg>
