<svg width="19" height="19" viewBox="0 0 19 19" fill="none" xmlns="http://www.w3.org/2000/svg">
<path d="M2.375 4.75H3.95833H16.625" stroke="#1D234E" stroke-width="1.58333" stroke-linecap="round" stroke-linejoin="round"/>
<path d="M6.33301 4.75065V3.16732C6.33301 2.74739 6.49982 2.34466 6.79676 2.04773C7.09369 1.7508 7.49642 1.58398 7.91634 1.58398H11.083C11.5029 1.58398 11.9057 1.7508 12.2026 2.04773C12.4995 2.34466 12.6663 2.74739 12.6663 3.16732V4.75065M15.0413 4.75065V15.834C15.0413 16.2539 14.8745 16.6566 14.5776 16.9536C14.2807 17.2505 13.8779 17.4173 13.458 17.4173H5.54134C5.12142 17.4173 4.71869 17.2505 4.42176 16.9536C4.12482 16.6566 3.95801 16.2539 3.95801 15.834V4.75065H15.0413Z" stroke="#1D234E" stroke-width="1.58333" stroke-linecap="round" stroke-linejoin="round"/>
<path d="M7.91699 8.70898V13.459" stroke="#1D234E" stroke-width="1.58333" stroke-linecap="round" stroke-linejoin="round"/>
<path d="M11.083 8.70898V13.459" stroke="#1D234E" stroke-width="1.58333" stroke-linecap="round" stroke-linejoin="round"/>
</svg>
