<svg width="20" height="15" viewBox="0 0 20 15" fill="none" xmlns="http://www.w3.org/2000/svg">
<path fill-rule="evenodd" clip-rule="evenodd" d="M17.944 1.3005C17.944 0.58611 17.2691 0 16.4256 0H9.37091C8.52659 0 7.85078 0.58611 7.85078 1.3005V4.42347H2.4136C1.77347 4.42347 1.15956 4.63707 0.706927 5.01729C0.254289 5.3975 0 5.91319 0 6.45089V14.192C0 14.3386 0.0693516 14.4793 0.192798 14.5829C0.316245 14.6866 0.483674 14.7449 0.658254 14.7449C0.832834 14.7449 1.00026 14.6866 1.12371 14.5829C1.24716 14.4793 1.31651 14.3386 1.31651 14.192V12.6666H7.85078V13.639H7.19253C7.01795 13.639 6.85052 13.6973 6.72707 13.801C6.60362 13.9047 6.53427 14.0453 6.53427 14.192C6.53427 14.3386 6.60362 14.4793 6.72707 14.5829C6.85052 14.6866 7.01795 14.7449 7.19253 14.7449H18.6023C18.7768 14.7449 18.9443 14.6866 19.0677 14.5829C19.1912 14.4793 19.2605 14.3386 19.2605 14.192C19.2605 14.0453 19.1912 13.9047 19.0677 13.801C18.9443 13.6973 18.7768 13.639 18.6023 13.639H17.944V1.3005ZM9.37091 1.10587H16.4248C16.5318 1.10587 16.6275 1.18918 16.6275 1.3005V13.639H9.16729V1.3005C9.16729 1.18918 9.26383 1.10587 9.37091 1.10587ZM7.85078 11.5607V10.4549H1.31651V11.5607H7.85078ZM2.4136 5.52934H7.85078L7.85166 7.50073C7.41308 7.17979 6.85088 7.00325 6.26921 7.00383H5.04662C4.40649 7.00383 3.79258 7.21743 3.33994 7.59764C2.88731 7.97786 2.63302 8.49354 2.63302 9.03125V9.349H1.31651V6.45089C1.31651 5.94219 1.80801 5.52934 2.4136 5.52934ZM6.26921 8.10969H5.04662C4.44102 8.10969 3.94953 8.52255 3.94953 9.03125V9.349H7.36543V9.03125C7.36543 8.52255 6.87569 8.10969 6.26921 8.10969ZM15.4874 7.92538C15.4874 7.72985 15.3949 7.54233 15.2303 7.40407C15.0657 7.26581 14.8425 7.18814 14.6097 7.18814C14.377 7.18814 14.1537 7.26581 13.9891 7.40407C13.8245 7.54233 13.7321 7.72985 13.7321 7.92538C13.7321 8.12091 13.8245 8.30843 13.9891 8.44669C14.1537 8.58495 14.377 8.66263 14.6097 8.66263C14.8425 8.66263 15.0657 8.58495 15.2303 8.44669C15.3949 8.30843 15.4874 8.12091 15.4874 7.92538Z" fill="#1D234E"/>
</svg>
