<svg width="24" height="25" viewBox="0 0 24 25" fill="none" xmlns="http://www.w3.org/2000/svg">
<g clip-path="url(#clip0_4332_2693)">
<g clip-path="url(#clip1_4332_2693)">
<path d="M12.0006 1.23016C5.7858 1.23016 0.730469 6.2855 0.730469 12.5003C0.730469 18.715 5.7858 23.7703 12.0006 23.7703C18.2153 23.7703 23.2706 18.715 23.2706 12.5003C23.2706 6.2855 18.2153 1.23016 12.0006 1.23016ZM12.0006 21.8552C9.03866 21.8552 6.39866 20.4674 4.68384 18.3121C5.87833 16.7491 7.5446 15.6126 9.43569 15.071C8.75478 14.6385 8.19404 14.0411 7.80544 13.3342C7.41683 12.6273 7.21293 11.8337 7.21261 11.027C7.21261 8.38704 9.36056 6.23909 12.0006 6.23909C14.6406 6.23909 16.7885 8.38704 16.7885 11.027C16.7878 11.8338 16.5837 12.6274 16.195 13.3344C15.8063 14.0414 15.2456 14.6389 14.5647 15.0717C16.4562 15.613 18.1228 16.7496 19.3173 18.3128C17.6025 20.4674 14.9625 21.8552 12.0006 21.8552Z" fill="#191C1F"/>
</g>
</g>
<defs>
<clipPath id="clip0_4332_2693">
<rect width="23.5714" height="23.5714" fill="white" transform="translate(0.214844 0.714294)"/>
</clipPath>
<clipPath id="clip1_4332_2693">
<rect width="23.5714" height="23.5714" fill="white" transform="translate(0.214844 0.714355)"/>
</clipPath>
</defs>
</svg>
