<svg width="12" height="14" viewBox="0 0 12 14" fill="none" xmlns="http://www.w3.org/2000/svg">
<path fill-rule="evenodd" clip-rule="evenodd" d="M2.41573 3.44828C2.41573 1.51724 3.93297 0 5.86401 0C7.79504 0 9.31228 1.51724 9.31228 3.44828C9.31228 5.37931 7.79504 6.89655 5.86401 6.89655C3.93297 6.89655 2.41573 5.37931 2.41573 3.44828ZM11.7241 11.7242V13.1035C11.7241 13.5173 11.4483 13.7932 11.0345 13.7932C10.6207 13.7932 10.3448 13.5173 10.3448 13.1035V11.7242C10.3448 10.5518 9.44828 9.65526 8.27586 9.65526H3.44828C2.27586 9.65526 1.37931 10.5518 1.37931 11.7242V13.1035C1.37931 13.5173 1.10345 13.7932 0.689655 13.7932C0.275862 13.7932 0 13.5173 0 13.1035V11.7242C0 9.79319 1.51724 8.27595 3.44828 8.27595H8.27586C10.2069 8.27595 11.7241 9.79319 11.7241 11.7242ZM5.85988 5.51733C4.68747 5.51733 3.79091 4.62077 3.79091 3.44836C3.79091 2.27595 4.68747 1.37939 5.85988 1.37939C7.03229 1.37939 7.92885 2.27595 7.92885 3.44836C7.92885 4.62077 7.03229 5.51733 5.85988 5.51733Z" fill="#1D234E"/>
</svg>
