<svg width="16" height="16" viewBox="0 0 16 16" fill="none" xmlns="http://www.w3.org/2000/svg">
<path d="M8.14941 0.259766C10.2084 0.265064 12.1811 1.0874 13.6342 2.54614C15.0874 4.00489 15.9021 5.98076 15.8994 8.03977C15.8925 10.0508 15.1042 11.9803 13.701 13.4209C12.2978 14.8614 10.3895 15.7001 8.37941 15.7598H8.12941C6.11836 15.7555 4.1877 14.9697 2.74529 13.5684C1.30288 12.167 0.461687 10.2599 0.399414 8.24977V7.99977C0.402064 5.94607 1.21975 3.9774 2.67287 2.52615C4.12599 1.07491 6.09572 0.259764 8.14941 0.259766ZM10.0994 8.75977H6.19941C6.34941 11.6598 7.36941 14.0998 8.07941 14.2598H8.14941C8.82941 14.2598 9.86941 11.8898 10.0794 9.02977L10.0994 8.75977ZM14.3594 8.75977H11.5994C11.5094 10.7198 11.0694 12.5398 10.4194 13.8398C11.4334 13.4433 12.3264 12.7893 13.0103 11.9423C13.6943 11.0952 14.1455 10.0845 14.3194 9.00977L14.3594 8.75977ZM4.68941 8.75977H1.94941C2.08543 9.88365 2.52367 10.9496 3.21748 11.8442C3.9113 12.7387 4.83471 13.4284 5.88941 13.8398C5.20235 12.3629 4.8084 10.7667 4.72941 9.13977L4.69941 8.75977H4.68941ZM5.88941 2.17977L5.76941 2.22977C4.74208 2.65287 3.84586 3.34178 3.17278 4.22574C2.49969 5.10971 2.074 6.15689 1.93941 7.25977H4.68941C4.77941 5.42977 5.16941 3.71977 5.74941 2.44977L5.88941 2.17977ZM8.13941 1.75977C7.43941 1.75977 6.35941 4.26977 6.19941 7.25977H10.0994C9.94941 4.35977 8.91941 1.91977 8.20941 1.75977H8.13941ZM10.4194 2.18977L10.4494 2.23977C11.165 3.81923 11.556 5.52632 11.5994 7.25977H14.3494C14.2105 6.13947 13.7722 5.07734 13.0806 4.18512C12.389 3.29291 11.4697 2.60361 10.4194 2.18977Z" fill="#222222"/>
</svg>
