<svg width="18" height="19" viewBox="0 0 18 19" fill="none" xmlns="http://www.w3.org/2000/svg">
<path d="M12.4629 8.77246C12.4629 8.74902 12.4629 8.53809 12.4629 8.13965C12.4629 7.75293 12.4629 7.32812 12.4629 6.86523C12.4629 6.40234 12.4629 5.97754 12.4629 5.59082C12.4629 5.21582 12.4629 5.02832 12.4629 5.02832C12.4629 5.02832 12.1348 5.3623 11.4785 6.03027C10.8223 6.69824 10.0986 7.43652 9.30762 8.24512C8.5166 9.05371 7.78711 9.80371 7.11914 10.4951C6.43945 11.1748 6.08203 11.5264 6.04688 11.5498C5.98828 11.6084 5.8916 11.6055 5.75684 11.541C5.62207 11.4766 5.50781 11.4033 5.41406 11.3213C5.33203 11.2393 5.25879 11.1279 5.19434 10.9873C5.12988 10.8467 5.12109 10.7412 5.16797 10.6709C5.19141 10.6357 5.54883 10.2842 6.24023 9.61621C6.91992 8.93652 7.66406 8.20117 8.47266 7.41016C9.28125 6.61914 10.0195 5.89551 10.6875 5.23926C11.3555 4.58301 11.6895 4.25488 11.6895 4.25488C11.6895 4.25488 11.502 4.25488 11.127 4.25488C10.752 4.25488 10.333 4.25488 9.87012 4.25488C9.40723 4.25488 8.97656 4.25488 8.57812 4.25488C8.19141 4.25488 7.98047 4.25488 7.94531 4.25488C7.88672 4.25488 7.83691 4.21387 7.7959 4.13184C7.75488 4.0498 7.73438 3.92676 7.73438 3.7627C7.72266 3.58691 7.7373 3.45508 7.77832 3.36719C7.81934 3.2793 7.875 3.23535 7.94531 3.23535C7.98047 3.23535 8.26172 3.23535 8.78906 3.23535C9.31641 3.23535 9.89062 3.23535 10.5117 3.23535C11.1328 3.23535 11.6953 3.23535 12.1992 3.23535C12.7148 3.23535 12.9727 3.23535 12.9727 3.23535C12.9727 3.23535 13.0137 3.24121 13.0957 3.25293C13.1777 3.26465 13.2598 3.30566 13.3418 3.37598C13.4121 3.45801 13.4561 3.54297 13.4736 3.63086C13.4912 3.71875 13.5 3.7627 13.5 3.7627C13.5 3.7627 13.5 4.02051 13.5 4.53613C13.5 5.04004 13.5 5.60254 13.5 6.22363C13.5 6.84473 13.5 7.41895 13.5 7.94629C13.5 8.47363 13.5 8.74902 13.5 8.77246C13.5 8.83105 13.4502 8.88379 13.3506 8.93066C13.251 8.97754 13.125 9.00098 12.9727 9.00098C12.832 9.00098 12.7148 8.97461 12.6211 8.92188C12.5273 8.86914 12.4746 8.81934 12.4629 8.77246ZM1.24805 16.7002C0.908203 16.7002 0.615234 16.5771 0.369141 16.3311C0.123047 16.085 0 15.792 0 15.4521V4.44824C0 4.1084 0.123047 3.81543 0.369141 3.56934C0.615234 3.32324 0.908203 3.2002 1.24805 3.2002C1.24805 3.2002 1.48242 3.2002 1.95117 3.2002C2.4082 3.2002 2.9209 3.2002 3.48926 3.2002C4.05762 3.2002 4.58789 3.2002 5.08008 3.2002C5.57227 3.2002 5.8418 3.2002 5.88867 3.2002C5.98242 3.2002 6.0498 3.27344 6.09082 3.41992C6.13184 3.56641 6.15234 3.68652 6.15234 3.78027C6.15234 3.87402 6.13184 3.99121 6.09082 4.13184C6.0498 4.27246 5.98242 4.34277 5.88867 4.34277C5.8418 4.34277 5.56641 4.34277 5.0625 4.34277C4.55859 4.34277 4.0166 4.34277 3.43652 4.34277C2.85645 4.34277 2.32617 4.34277 1.8457 4.34277C1.37695 4.34277 1.14258 4.34277 1.14258 4.34277V15.5576H12.3574C12.3574 15.5576 12.3574 15.3174 12.3574 14.8369C12.3574 14.3564 12.3574 13.8232 12.3574 13.2373C12.3574 12.6514 12.3574 12.1064 12.3574 11.6025C12.3574 11.1104 12.3574 10.8408 12.3574 10.7939C12.3574 10.7236 12.4307 10.668 12.5771 10.627C12.7236 10.5859 12.8438 10.5654 12.9375 10.5654C13.0312 10.5654 13.1455 10.5859 13.2803 10.627C13.415 10.668 13.4824 10.7236 13.4824 10.7939C13.4824 10.8408 13.4824 11.1045 13.4824 11.585C13.4824 12.0771 13.4824 12.6104 13.4824 13.1846C13.4824 13.7588 13.4824 14.2803 13.4824 14.749C13.4824 15.2178 13.4824 15.4521 13.4824 15.4521C13.4824 15.792 13.3623 16.085 13.1221 16.3311C12.8818 16.5771 12.5859 16.7002 12.2344 16.7002H1.24805Z" fill="#1D234E"/>
</svg>
