<svg width="13" height="12" viewBox="0 0 13 12" fill="none" xmlns="http://www.w3.org/2000/svg">
<path d="M0.887344 11.5098V0.0857649H5.49534C6.50868 0.0857649 7.30868 0.261765 7.89534 0.613765C8.49268 0.965765 8.91934 1.45643 9.17534 2.08576C9.44201 2.7151 9.57534 3.45643 9.57534 4.30977V8.59777H7.47934V4.35777C7.47934 3.72843 7.39401 3.2271 7.22334 2.85377C7.05268 2.48043 6.79668 2.21377 6.45534 2.05377C6.12468 1.8831 5.70334 1.79776 5.19134 1.79776H2.98334V11.5098H0.887344ZM4.18334 2.99777H6.27934V9.79777H8.48734C8.99934 9.79777 9.42068 9.71777 9.75134 9.55777C10.0927 9.3871 10.3487 9.1151 10.5193 8.74177C10.69 8.36843 10.7753 7.8671 10.7753 7.23777V0.0857649H12.8713V7.28577C12.8713 8.12843 12.7327 8.86977 12.4553 9.50977C12.1887 10.1391 11.7513 10.6298 11.1433 10.9818C10.5353 11.3338 9.72468 11.5098 8.71134 11.5098H4.18334V2.99777Z" fill="#1D234E"/>
</svg>
