<svg width="123" height="36" viewBox="0 0 123 36" fill="none" xmlns="http://www.w3.org/2000/svg">
<path d="M38.8662 12.88C39.3186 12.88 39.5813 13.1281 39.5667 13.5951C39.3916 16.7184 38.0489 19.0097 35.9473 20.0751L40.2819 27.1535C40.5738 27.6351 40.3548 28 39.8003 28H38.2824C37.903 28 37.6257 27.8541 37.4359 27.533L33.3203 20.7465H30.6786V27.2995C30.6786 27.7519 30.4305 28 29.9781 28H28.723C28.2705 28 28.0224 27.7519 28.0224 27.2995V7.39243C28.0224 6.94 28.2705 6.69189 28.723 6.69189H29.9781C30.4305 6.69189 30.6786 6.94 30.6786 7.39243V18.4551H32.43C34.8673 18.4551 36.677 16.8643 36.8959 13.5805C36.9397 13.1281 37.1732 12.88 37.6111 12.88H38.8662ZM44.4233 21.2719C44.7152 23.9719 46.9336 26.0589 49.8525 26.0589C51.7644 26.0589 53.1947 25.4022 54.5666 24.1324C54.9022 23.8259 55.2379 23.8114 55.559 24.1178L56.099 24.6286C56.4201 24.9351 56.4493 25.2708 56.1428 25.6065C54.5957 27.2703 52.713 28.3503 49.9255 28.3503C45.0071 28.3503 41.7087 24.8184 41.7087 20.44C41.7087 16.0616 45.1093 12.5297 49.7066 12.5297C54.2163 12.5297 57.4125 15.9449 57.4125 20.1043C57.4125 20.2649 57.3979 20.4546 57.3833 20.6297C57.3395 21.0676 57.0622 21.2719 56.639 21.2719H44.4233ZM49.7066 14.8211C47.1817 14.8211 45.0509 16.66 44.5255 19.0681H54.6249C54.2163 16.6308 52.2606 14.8211 49.7066 14.8211ZM63.2884 27.2995C63.2884 27.7519 63.0403 28 62.5879 28H61.3328C60.8803 28 60.6322 27.7519 60.6322 27.2995V13.5805C60.6322 13.1281 60.8803 12.88 61.3328 12.88H62.5879C63.0403 12.88 63.2884 13.1281 63.2884 13.5805V15.1422C64.3392 13.5951 65.9592 12.5297 67.8419 12.5297C70.1771 12.5297 72.1036 13.7265 73.023 15.7551C74.0155 13.8286 75.9128 12.5297 78.1895 12.5297C81.5025 12.5297 83.9836 14.9086 83.9836 18.7032V27.2995C83.9836 27.7519 83.7355 28 83.283 28H82.0279C81.5755 28 81.3273 27.7519 81.3273 27.2995V18.8492C81.3273 16.4411 79.8825 14.9086 77.6933 14.9086C75.8106 14.9086 73.636 16.9373 73.636 19.5789V27.2995C73.636 27.7519 73.3879 28 72.9355 28H71.6803C71.2279 28 70.9798 27.7519 70.9798 27.2995V18.8492C70.9798 16.4411 69.5349 14.9086 67.3457 14.9086C65.463 14.9086 63.2884 16.9373 63.2884 19.5789V27.2995ZM89.6039 21.2719C89.8957 23.9719 92.1141 26.0589 95.033 26.0589C96.9449 26.0589 98.3752 25.4022 99.7471 24.1324C100.083 23.8259 100.418 23.8114 100.74 24.1178L101.28 24.6286C101.601 24.9351 101.63 25.2708 101.323 25.6065C99.7763 27.2703 97.8936 28.3503 95.106 28.3503C90.1876 28.3503 86.8893 24.8184 86.8893 20.44C86.8893 16.0616 90.2898 12.5297 94.8871 12.5297C99.3968 12.5297 102.593 15.9449 102.593 20.1043C102.593 20.2649 102.578 20.4546 102.564 20.6297C102.52 21.0676 102.243 21.2719 101.82 21.2719H89.6039ZM94.8871 14.8211C92.3622 14.8211 90.2314 16.66 89.706 19.0681H99.8055C99.3968 16.6308 97.4412 14.8211 94.8871 14.8211ZM104.762 20.44C104.762 16.0616 107.914 12.5151 112.22 12.5151C114.526 12.5151 116.496 13.5513 117.824 15.1714V13.5805C117.824 13.1281 118.072 12.88 118.525 12.88H119.78C120.232 12.88 120.48 13.1281 120.48 13.5805V27.2995C120.48 27.7519 120.232 28 119.78 28H118.525C118.072 28 117.824 27.7519 117.824 27.2995V25.7086C116.496 27.3286 114.526 28.3503 112.22 28.3503C107.914 28.3503 104.762 24.8184 104.762 20.44ZM107.462 20.44C107.462 23.4903 109.695 25.9568 112.672 25.9568C115.65 25.9568 117.824 23.4903 117.824 20.44C117.824 17.3897 115.722 14.9086 112.672 14.9086C109.622 14.9086 107.462 17.3897 107.462 20.44Z" fill="#191C1F"/>
<g clip-path="url(#clip0_103_1126)">
<path d="M10.0179 11.1112C2.38157 8.38722 3.35357 6.14055 3.37686 5.83789C3.37686 5.83789 -1.67523 11.1868 0.583075 16.7918C3.49908 24.0324 16.1642 23.9393 8.74906 29.0787C8.25433 29.4221 10.0295 28.8924 10.664 28.7818C13.8885 28.2231 16.5425 25.8542 17.4331 22.7112C18.4749 19.0443 18.4109 14.1028 10.0179 11.1112Z" fill="#0666EB"/>
</g>
<defs>
<clipPath id="clip0_103_1126">
<rect width="17.8918" height="23.3514" fill="white" transform="translate(0 5.83789)"/>
</clipPath>
</defs>
</svg>
